<svg width="50" height="50" viewBox="0 0 50 50" fill="none" xmlns="http://www.w3.org/2000/svg">
<path d="M23.8149 0.773104C23.9244 0.540986 24.0936 0.3456 24.3034 0.208994C24.5133 0.0723877 24.7553 0 25.0022 0C25.2492 0 25.4912 0.0723877 25.7011 0.208994C25.9109 0.3456 26.0801 0.540986 26.1896 0.773104L31.9641 13.0397C32.3445 13.8471 32.9061 14.5456 33.6005 15.0753C34.295 15.605 35.1017 15.95 35.9513 16.0808L48.8651 18.0628C49.1098 18.1 49.3397 18.2082 49.5288 18.3753C49.7178 18.5424 49.8586 18.7616 49.935 19.0082C50.0115 19.2547 50.0207 19.5189 49.9615 19.7706C49.9023 20.0224 49.7771 20.2517 49.6 20.4327L40.2609 29.9703C39.645 30.5997 39.1841 31.3767 38.9181 32.2344C38.652 33.092 38.5887 34.0047 38.7335 34.8937L40.9383 48.3689C40.9815 48.6254 40.9551 48.8894 40.8621 49.131C40.769 49.3725 40.6132 49.5817 40.4122 49.7347C40.2113 49.8878 39.9733 49.9786 39.7256 49.9966C39.4778 50.0147 39.2302 49.9594 39.011 49.837L27.467 43.4717C26.7064 43.0528 25.8601 42.834 25.001 42.834C24.1419 42.834 23.2956 43.0528 22.535 43.4717L10.9935 49.837C10.7744 49.9587 10.527 50.0134 10.2797 49.995C10.0324 49.9765 9.79491 49.8857 9.59437 49.7327C9.39383 49.5797 9.23825 49.3708 9.14532 49.1297C9.05238 48.8886 9.02583 48.625 9.06868 48.3689L11.271 34.8963C11.4165 34.0069 11.3534 33.0937 11.0873 32.2355C10.8213 31.3773 10.3601 30.5998 9.74362 29.9703L0.404463 20.4354C0.225963 20.2546 0.0994733 20.0248 0.0394018 19.7723C-0.0206697 19.5198 -0.0119074 19.2546 0.0646903 19.0071C0.141288 18.7595 0.282641 18.5395 0.472649 18.3721C0.662656 18.2047 0.893677 18.0966 1.1394 18.0602L14.0507 16.0808C14.9013 15.9511 15.7091 15.6065 16.4045 15.0767C17.0999 14.547 17.6622 13.8479 18.0429 13.0397L23.8149 0.773104Z" fill="white"/>
</svg>
