<svg width="40" height="40" viewBox="0 0 40 40" fill="none" xmlns="http://www.w3.org/2000/svg">
<path fill-rule="evenodd" clip-rule="evenodd" d="M20 40C31.046 40 40 31.046 40 20C40 8.954 31.046 0 20 0C8.954 0 0 8.954 0 20C0 31.046 8.954 40 20 40ZM12.37 27.5C12.4672 27.1145 12.7135 26.7833 13.0548 26.5793C13.3961 26.3753 13.8044 26.3151 14.19 26.412C16.45 26.978 19.046 26.984 21.682 26.278C24.318 25.572 26.562 24.268 28.236 22.648C28.5223 22.3747 28.9051 22.2257 29.3008 22.2334C29.6965 22.2411 30.0732 22.4049 30.3487 22.6891C30.6242 22.9733 30.7762 23.3548 30.7716 23.7506C30.7669 24.1464 30.6061 24.5243 30.324 24.802C29.6135 25.4884 28.8439 26.1108 28.024 26.662L28.342 27.304C28.69 28.0179 28.7408 28.8407 28.4831 29.592C28.2254 30.3432 27.6804 30.9617 26.9674 31.3117C26.2544 31.6617 25.4318 31.7146 24.6798 31.459C23.9279 31.2034 23.3079 30.66 22.956 29.948L22.564 29.148L22.458 29.176C19.348 30.01 16.234 30.016 13.46 29.322C13.2689 29.2741 13.0892 29.189 12.931 29.0716C12.7728 28.9542 12.6393 28.8068 12.538 28.6378C12.4368 28.4688 12.3699 28.2815 12.3411 28.0866C12.3122 27.8917 12.3221 27.6931 12.37 27.502M26.95 15.034C27.38 16.634 26.862 18.164 25.796 18.448C24.728 18.734 23.516 17.668 23.088 16.068C22.66 14.468 23.176 12.94 24.242 12.654C25.31 12.368 26.522 13.434 26.95 15.034ZM14.204 21.554C15.272 21.268 15.788 19.74 15.36 18.14C14.932 16.54 13.72 15.474 12.652 15.76C11.584 16.046 11.068 17.574 11.496 19.174C11.924 20.774 13.136 21.84 14.204 21.554Z" fill="white"/>
</svg>
