<svg width="236" height="72" viewBox="0 0 236 72" fill="none" xmlns="http://www.w3.org/2000/svg">
<path d="M0 20.9376C0 18.6611 0.829336 16.9163 2.47441 15.6895C4.11949 14.4627 6.56672 13.8493 9.81609 13.8493V17.8705C7.74954 19.5335 6.66188 20.7195 6.15884 21.5373L6.68907 21.81C8.1846 19.7244 11.8826 16.7391 14.2075 15.5805C16.5323 14.4218 19.1155 13.8493 21.957 13.8493C24.4586 13.8493 26.6611 14.3673 28.5917 15.4169C30.5087 16.4665 32.0314 17.8978 33.1191 19.738C34.2203 21.5782 34.7642 23.6365 34.7642 25.8993V43.6881C34.7642 45.6373 33.9076 47.0414 32.2218 47.8729C30.5223 48.718 27.9527 49.1269 24.4994 49.1269V27.317C24.4994 25.7766 23.9556 24.4817 22.8951 23.4321C21.8211 22.3825 20.312 21.8645 18.3678 21.8645C15.9749 21.8645 14.0171 22.5733 12.5216 23.9773C11.0261 25.3813 10.2783 27.1534 10.2783 29.2935V43.6744C10.2783 45.6237 9.4354 47.0277 7.76313 47.8592C6.09087 48.6907 3.50769 49.1133 0.0135986 49.1133V20.9103L0 20.9376Z" fill="#2BB39B"/>
<path d="M36.1646 19.5063C36.1646 17.557 37.0075 16.153 38.7069 15.3215C40.4064 14.4764 42.976 14.0674 46.4293 14.0674V43.9062C46.4293 45.8554 45.5728 47.2594 43.8869 48.091C42.1874 48.9361 39.6179 49.345 36.1646 49.345V19.5063Z" fill="#2BB39B"/>
<path d="M41.3037 10.0871C44.3672 10.0871 46.8507 7.82903 46.8507 5.04355C46.8507 2.25807 44.3672 0 41.3037 0C38.2401 0 35.7566 2.25807 35.7566 5.04355C35.7566 7.82903 38.2401 10.0871 41.3037 10.0871Z" fill="#2BB39B"/>
<path d="M47.8296 20.9376C47.8296 18.6611 48.6318 16.9163 50.2225 15.6895C51.8268 14.4627 54.2468 13.8493 57.4962 13.8493V17.8705C56.0958 19.3836 55.0897 20.4741 54.6003 21.292L55.1305 21.5646C56.7348 19.3836 59.4132 16.6301 61.1398 15.526C62.8665 14.4082 64.9194 13.863 67.3258 13.863C71.5677 13.863 74.518 15.7986 76.163 19.6562C77.4138 17.8433 79.0045 16.4256 80.9623 15.4033C82.9065 14.3809 85.109 13.8766 87.5562 13.8766C90.9551 13.8766 93.6607 15.008 95.6864 17.2844C97.7122 19.5608 98.7183 22.437 98.7183 25.9402V43.729C98.7183 45.6782 97.889 47.0822 96.2439 47.9137C94.5988 48.7453 92.0428 49.1678 88.6031 49.1678V26.7445C88.6031 25.2041 88.2224 23.9773 87.4747 23.064C86.7269 22.1507 85.5577 21.7009 83.9534 21.7009C82.3491 21.7009 81.0031 22.2189 79.9019 23.2276C78.8006 24.2363 78.2568 25.9675 78.2568 28.3666V43.7017C78.2568 45.651 77.441 47.055 75.8232 47.8865C74.2053 48.7316 71.6901 49.1406 68.2911 49.1406V26.7172C68.2911 25.1769 67.9105 23.9501 67.1627 23.0368C66.4149 22.1235 65.2593 21.6736 63.7094 21.6736C59.8618 21.6736 57.9448 24.0182 57.9448 28.6937V43.6881C57.9448 45.6373 57.1155 47.0414 55.4704 47.8729C53.8253 48.7044 51.2693 49.1269 47.8296 49.1269V20.9239V20.9376Z" fill="#2BB39B"/>
<path d="M99.6835 6.35213C99.6835 4.44376 100.54 2.94432 102.267 1.85382C103.993 0.763326 106.604 0.218078 110.098 0.218078V15.7577C109.241 16.3029 107.555 17.6251 107.297 17.9796L107.596 18.3203C110.098 16.0985 111.784 15.4442 113.959 14.8035C116.134 14.1628 118.092 13.8493 119.846 13.8493C124.292 13.8493 127.84 14.9943 130.491 17.2844C133.142 19.5744 134.461 22.546 134.461 26.1719V36.7361C134.461 39.0943 133.795 41.2208 132.476 43.1019C131.158 44.983 129.404 46.4688 127.228 47.5321C125.053 48.5953 122.742 49.1269 120.295 49.1269C117.548 49.1269 115.21 48.6362 113.293 47.6684C111.376 46.6869 108.752 44.4378 107.215 42.5294L106.835 42.802C107.08 43.211 108.439 44.6013 109.132 45.3783C109.132 46.5642 108.412 47.4775 106.957 48.1318C105.502 48.7861 103.082 49.1133 99.6835 49.1133V6.35213ZM122.348 39.8032C123.571 38.9444 124.183 37.6903 124.183 36.0546V26.8535C124.183 25.2586 123.571 24.0318 122.348 23.1731C121.124 22.3143 119.356 21.8781 117.059 21.8781C114.965 21.8781 113.252 22.3279 111.92 23.2412C110.601 24.1545 109.935 25.2586 109.935 26.5809V36.3953C109.935 37.7585 110.601 38.8762 111.92 39.7623C113.238 40.6483 114.951 41.0845 117.059 41.0845C119.356 41.0845 121.124 40.6483 122.348 39.7895V39.8032Z" fill="#2BB39B"/>
<path d="M139.084 45.7736C136.881 43.5245 135.78 40.6756 135.78 37.2269V5.67058C135.78 3.72131 136.623 2.3173 138.295 1.48579C139.968 0.640658 142.551 0.231721 146.045 0.231721V36.8861C146.045 38.3855 146.426 39.4624 147.173 40.1167C147.921 40.771 149.09 41.0981 150.695 41.0981C152.598 41.0981 154.461 40.6483 156.31 39.735C156.854 40.1848 157.302 40.7573 157.628 41.4389C157.955 42.1205 158.118 42.802 158.118 43.4836C158.118 44.9421 157.329 46.2371 155.752 47.3958C154.175 48.5544 151.891 49.1269 148.9 49.1269C144.549 49.1269 141.286 48.0092 139.084 45.76V45.7736Z" fill="#2BB39B"/>
<path d="M158.961 19.5063C158.961 17.557 159.804 16.153 161.503 15.3215C163.203 14.4764 165.772 14.0674 169.226 14.0674V43.9062C169.226 45.8554 168.369 47.2594 166.683 48.091C164.984 48.9361 162.414 49.345 158.961 49.345V19.5063Z" fill="#2BB39B"/>
<path d="M164.1 10.0871C167.164 10.0871 169.647 7.82903 169.647 5.04355C169.647 2.25807 167.164 0 164.1 0C161.036 0 158.553 2.25807 158.553 5.04355C158.553 7.82903 161.036 10.0871 164.1 10.0871Z" fill="#2BB39B"/>
<path d="M1.13187 71.9501C0.716995 71.9501 0.409991 71.8252 0.210852 71.5756C0.011714 71.3093 -0.046368 70.9348 0.0366063 70.4522L2.45116 55.2483C2.51754 54.8322 2.66689 54.5243 2.89922 54.3245C3.14814 54.1082 3.48004 54 3.89491 54C4.30978 54 4.60849 54.1331 4.79103 54.3994C4.97358 54.6491 5.03166 55.0069 4.96528 55.473L3.9198 62.0888H3.96959L12.8063 54.5992C13.0553 54.3828 13.2627 54.233 13.4287 54.1498C13.6112 54.0499 13.8352 54 14.1007 54C14.4326 54 14.6982 54.0999 14.8973 54.2996C15.0964 54.4993 15.1877 54.7406 15.1711 55.0236C15.1711 55.3065 15.0384 55.5645 14.7728 55.7975L5.78672 63.4119L5.76183 62.1387L12.9557 70.2025C13.188 70.4522 13.2876 70.7101 13.2544 70.9764C13.2378 71.2427 13.1299 71.4757 12.9308 71.6755C12.7317 71.8585 12.4579 71.9501 12.1094 71.9501C11.8107 71.9501 11.5617 71.8835 11.3626 71.7503C11.1801 71.6172 10.956 71.4092 10.6905 71.1262L3.74556 63.4868H3.69577L2.57562 70.7018C2.50924 71.1179 2.35989 71.4341 2.12756 71.6505C1.89523 71.8502 1.56333 71.9501 1.13187 71.9501Z" fill="#2BB39B"/>
<path d="M17.1913 71.9501C16.8096 71.9501 16.5275 71.8252 16.3449 71.5756C16.1624 71.3093 16.1043 70.9431 16.1707 70.4771L17.7389 60.6657C17.8053 60.2497 17.9546 59.9417 18.187 59.742C18.4359 59.5257 18.7678 59.4175 19.1827 59.4175C19.5643 59.4175 19.8465 59.5506 20.029 59.8169C20.2115 60.0666 20.2696 60.4244 20.2032 60.8904L18.635 70.7018C18.5687 71.1179 18.4193 71.4341 18.187 71.6505C17.9546 71.8502 17.6227 71.9501 17.1913 71.9501ZM19.6058 56.871C19.1412 56.871 18.7927 56.7545 18.5604 56.5215C18.328 56.2885 18.2285 55.9639 18.2616 55.5478C18.3114 55.0485 18.494 54.6741 18.8093 54.4244C19.1246 54.1581 19.5395 54.025 20.0539 54.025C20.5351 54.025 20.8919 54.1415 21.1243 54.3745C21.3566 54.6075 21.4562 54.932 21.423 55.3481C21.3732 55.8474 21.1906 56.2302 20.8753 56.4965C20.5766 56.7462 20.1535 56.871 19.6058 56.871Z" fill="#2BB39B"/>
<path d="M23.2691 71.9501C22.8874 71.9501 22.6053 71.8169 22.4227 71.5506C22.2402 71.2843 22.1821 70.9182 22.2485 70.4522L23.7918 60.6657C23.8582 60.2497 24.0158 59.9417 24.2648 59.742C24.5137 59.5257 24.8373 59.4175 25.2356 59.4175C25.6007 59.4175 25.8745 59.534 26.057 59.767C26.2396 60 26.2893 60.3495 26.2064 60.8155L25.9326 62.663L25.7832 62.2386C26.1981 61.3065 26.7955 60.5992 27.5754 60.1165C28.372 59.6172 29.3096 59.3675 30.3883 59.3675C31.2844 59.3675 32.0312 59.5506 32.6286 59.9168C33.2426 60.2829 33.6741 60.8405 33.923 61.5895C34.1885 62.3384 34.23 63.2871 34.0474 64.4355L33.0766 70.7018C33.0269 71.1179 32.8775 71.4341 32.6286 71.6505C32.3797 71.8502 32.0478 71.9501 31.6329 71.9501C31.2346 71.9501 30.9442 71.8169 30.7617 71.5506C30.5791 71.2843 30.521 70.9265 30.5874 70.4771L31.5333 64.4854C31.6993 63.4369 31.6163 62.663 31.2844 62.1637C30.9525 61.6477 30.3551 61.3897 29.4922 61.3897C28.3803 61.3897 27.4925 61.7309 26.8287 62.4133C26.1815 63.0957 25.7666 64.0277 25.5841 65.2094L24.7128 70.7018C24.5967 71.534 24.1154 71.9501 23.2691 71.9501Z" fill="#2BB39B"/>
<path d="M42.4155 72C41.2207 72 40.1835 71.7836 39.304 71.3509C38.4411 70.9015 37.769 70.2691 37.2877 69.4535C36.8231 68.638 36.5907 67.6727 36.5907 66.5576C36.5907 65.2261 36.8645 64.0194 37.4122 62.9376C37.9598 61.8558 38.7232 60.9903 39.7023 60.3412C40.698 59.6921 41.8513 59.3675 43.1623 59.3675C44.1414 59.3675 44.9628 59.5423 45.6266 59.8918C46.2904 60.2247 46.8132 60.6824 47.1948 61.2649C47.5765 61.8474 47.8254 62.5049 47.9416 63.2372C48.0744 63.9695 48.0993 64.7184 48.0163 65.4841C47.9831 65.8003 47.9001 66.0083 47.7674 66.1082C47.6346 66.208 47.4438 66.258 47.1948 66.258H38.5821L38.7812 64.7101H46.4232L45.9751 65.0596C46.0913 64.3273 46.0664 63.6699 45.9004 63.0874C45.7511 62.5049 45.4524 62.0388 45.0043 61.6893C44.5563 61.3232 43.934 61.1401 43.1374 61.1401C42.3243 61.1401 41.6356 61.3315 41.0713 61.7143C40.5237 62.0804 40.0922 62.5548 39.7769 63.1373C39.4782 63.7198 39.2708 64.3356 39.1546 64.9847L39.0551 65.6588C38.8227 66.9903 39.0219 68.0555 39.6525 68.8544C40.2997 69.6533 41.2788 70.0527 42.5898 70.0527C43.1374 70.0527 43.685 69.9861 44.2327 69.853C44.7803 69.7198 45.2864 69.5035 45.7511 69.2039C46.0166 69.0541 46.2489 68.9875 46.4481 69.0042C46.6638 69.0042 46.8298 69.0707 46.9459 69.2039C47.0787 69.337 47.1617 69.5035 47.1948 69.7032C47.228 69.8863 47.1948 70.086 47.0953 70.3024C47.0123 70.5021 46.8546 70.6768 46.6223 70.8266C46.0581 71.2261 45.386 71.5257 44.606 71.7254C43.8261 71.9085 43.0959 72 42.4155 72Z" fill="#2BB39B"/>
<path d="M54.5159 72C53.7359 72 52.9809 71.9168 52.2507 71.7503C51.5205 71.5673 50.8899 71.3343 50.3589 71.0513C50.0934 70.9182 49.9108 70.7517 49.8113 70.552C49.7117 70.3356 49.6702 70.1276 49.6868 69.9279C49.72 69.7282 49.7947 69.5617 49.9108 69.4286C50.0436 69.2788 50.2095 69.1872 50.4087 69.154C50.6244 69.1207 50.8567 69.1706 51.1057 69.3037C51.6367 69.6033 52.1926 69.828 52.7734 69.9778C53.3543 70.111 53.9434 70.1775 54.5408 70.1775C55.3871 70.1775 56.0426 70.0111 56.5073 69.6782C56.9719 69.3454 57.2043 68.896 57.2043 68.3301C57.2043 67.9473 57.0715 67.6311 56.806 67.3814C56.5571 67.1318 56.1837 66.957 55.6858 66.8571L53.3708 66.3329C52.5079 66.1498 51.8275 65.792 51.3297 65.2594C50.8484 64.7268 50.6078 64.061 50.6078 63.2621C50.6078 62.5298 50.8069 61.8724 51.2052 61.2899C51.6201 60.7074 52.2175 60.2413 52.9975 59.8918C53.794 59.5423 54.7316 59.3675 55.8103 59.3675C56.4409 59.3675 57.0964 59.4591 57.7768 59.6422C58.4572 59.8252 59.038 60.0749 59.5192 60.3911C59.7516 60.5409 59.9092 60.724 59.9922 60.9404C60.0918 61.1401 60.1167 61.3398 60.0669 61.5395C60.0337 61.7226 59.9507 61.8807 59.818 62.0139C59.7018 62.1304 59.5358 62.1969 59.3201 62.2136C59.121 62.2302 58.8969 62.1637 58.648 62.0139C58.2331 61.7476 57.7685 61.5479 57.254 61.4147C56.7396 61.2816 56.2169 61.215 55.6858 61.215C54.8229 61.215 54.1425 61.3897 53.6447 61.7393C53.1634 62.0888 52.9228 62.5548 52.9228 63.1373C52.9228 63.4868 53.0307 63.7947 53.2464 64.061C53.4621 64.3107 53.8106 64.4854 54.2919 64.5853L56.6068 65.1096C57.5362 65.3259 58.2497 65.6921 58.7476 66.208C59.262 66.7074 59.5192 67.3565 59.5192 68.1553C59.5192 69.3703 59.0629 70.319 58.1502 71.0014C57.2375 71.6671 56.026 72 54.5159 72Z" fill="#2BB39B"/>
<path d="M63.0135 71.9501C62.6318 71.9501 62.3497 71.8252 62.1672 71.5756C61.9846 71.3093 61.9265 70.9431 61.9929 70.4771L63.5611 60.6657C63.6275 60.2497 63.7769 59.9417 64.0092 59.742C64.2581 59.5257 64.59 59.4175 65.0049 59.4175C65.3866 59.4175 65.6687 59.5506 65.8512 59.8169C66.0338 60.0666 66.0918 60.4244 66.0255 60.8904L64.4573 70.7018C64.3909 71.1179 64.2415 71.4341 64.0092 71.6505C63.7769 71.8502 63.445 71.9501 63.0135 71.9501ZM65.428 56.871C64.9634 56.871 64.6149 56.7545 64.3826 56.5215C64.1502 56.2885 64.0507 55.9639 64.0839 55.5478C64.1337 55.0485 64.3162 54.6741 64.6315 54.4244C64.9468 54.1581 65.3617 54.025 65.8761 54.025C66.3574 54.025 66.7141 54.1415 66.9465 54.3745C67.1788 54.6075 67.2784 54.932 67.2452 55.3481C67.1954 55.8474 67.0129 56.2302 66.6976 56.4965C66.3988 56.7462 65.9757 56.871 65.428 56.871Z" fill="#2BB39B"/>
<path d="M72.626 72C71.846 72 71.091 71.9168 70.3608 71.7503C69.6306 71.5673 69 71.3343 68.469 71.0513C68.2035 70.9182 68.0209 70.7517 67.9214 70.552C67.8218 70.3356 67.7803 70.1276 67.7969 69.9279C67.8301 69.7282 67.9048 69.5617 68.0209 69.4286C68.1537 69.2788 68.3196 69.1872 68.5188 69.154C68.7345 69.1207 68.9668 69.1706 69.2158 69.3037C69.7468 69.6033 70.3027 69.828 70.8835 69.9778C71.4644 70.111 72.0535 70.1775 72.6509 70.1775C73.4972 70.1775 74.1527 70.0111 74.6174 69.6782C75.082 69.3454 75.3144 68.896 75.3144 68.3301C75.3144 67.9473 75.1816 67.6311 74.9161 67.3814C74.6672 67.1318 74.2938 66.957 73.7959 66.8571L71.481 66.3329C70.618 66.1498 69.9376 65.792 69.4398 65.2594C68.9585 64.7268 68.7179 64.061 68.7179 63.2621C68.7179 62.5298 68.9171 61.8724 69.3153 61.2899C69.7302 60.7074 70.3276 60.2413 71.1076 59.8918C71.9041 59.5423 72.8417 59.3675 73.9204 59.3675C74.551 59.3675 75.2065 59.4591 75.8869 59.6422C76.5673 59.8252 77.1481 60.0749 77.6294 60.3911C77.8617 60.5409 78.0193 60.724 78.1023 60.9404C78.2019 61.1401 78.2268 61.3398 78.177 61.5395C78.1438 61.7226 78.0608 61.8807 77.9281 62.0139C77.8119 62.1304 77.6459 62.1969 77.4302 62.2136C77.2311 62.2302 77.007 62.1637 76.7581 62.0139C76.3433 61.7476 75.8786 61.5479 75.3642 61.4147C74.8497 61.2816 74.327 61.215 73.7959 61.215C72.933 61.215 72.2526 61.3897 71.7548 61.7393C71.2735 62.0888 71.0329 62.5548 71.0329 63.1373C71.0329 63.4868 71.1408 63.7947 71.3565 64.061C71.5722 64.3107 71.9207 64.4854 72.402 64.5853L74.717 65.1096C75.6463 65.3259 76.3598 65.6921 76.8577 66.208C77.3721 66.7074 77.6294 67.3565 77.6294 68.1553C77.6294 69.3703 77.173 70.319 76.2603 71.0014C75.3476 71.6671 74.1361 72 72.626 72Z" fill="#2BB39B"/>
<path d="M85.1342 72C84.1385 72 83.3087 71.8086 82.645 71.4258C81.9977 71.043 81.5414 70.5104 81.2759 69.828C81.027 69.1456 80.9772 68.3467 81.1265 67.4313L82.0724 61.5395H80.7282C80.3964 61.5395 80.1308 61.4646 79.9317 61.3148C79.7492 61.165 79.6579 60.9653 79.6579 60.7157C79.6579 60.3495 79.774 60.0749 80.0064 59.8918C80.2553 59.6921 80.5706 59.5922 80.9523 59.5922H82.3711L82.7943 56.9209C82.8607 56.5215 83.01 56.2302 83.2424 56.0472C83.4747 55.8474 83.7817 55.7476 84.1634 55.7476C84.5948 55.7476 84.9019 55.8724 85.0844 56.1221C85.2669 56.3551 85.325 56.6963 85.2586 57.1456L84.8853 59.5922H87.6234C87.9719 59.5922 88.2374 59.6588 88.42 59.792C88.6025 59.9251 88.6938 60.1331 88.6938 60.4161C88.6938 60.7323 88.5859 60.9986 88.3702 61.215C88.171 61.4313 87.8806 61.5395 87.4989 61.5395H84.5865L83.6655 67.2316C83.5162 68.1803 83.624 68.8627 83.9891 69.2788C84.3542 69.6949 84.8936 69.9029 85.6071 69.9029C85.9224 69.9029 86.1714 69.8779 86.3539 69.828C86.553 69.7614 86.7273 69.7282 86.8766 69.7282C87.0758 69.7282 87.2168 69.7864 87.2998 69.9029C87.3994 70.0028 87.4492 70.1859 87.4492 70.4522C87.4492 70.9015 87.3745 71.2178 87.2251 71.4008C87.0924 71.5839 86.8932 71.7171 86.6277 71.8003C86.4452 71.8669 86.2046 71.9168 85.9058 71.9501C85.6237 71.9834 85.3665 72 85.1342 72Z" fill="#2BB39B"/>
<path d="M94.8011 72C93.6063 72 92.5691 71.7836 91.6896 71.3509C90.8267 70.9015 90.1546 70.2691 89.6733 69.4535C89.2087 68.638 88.9763 67.6727 88.9763 66.5576C88.9763 65.2261 89.2502 64.0194 89.7978 62.9376C90.3454 61.8558 91.1088 60.9903 92.0879 60.3412C93.0836 59.6921 94.2369 59.3675 95.5479 59.3675C96.527 59.3675 97.3484 59.5423 98.0122 59.8918C98.676 60.2247 99.1988 60.6824 99.5805 61.2649C99.9621 61.8474 100.211 62.5049 100.327 63.2372C100.46 63.9695 100.485 64.7184 100.402 65.4841C100.369 65.8003 100.286 66.0083 100.153 66.1082C100.02 66.208 99.8294 66.258 99.5805 66.258H90.9677L91.1669 64.7101H98.8088L98.3607 65.0596C98.4769 64.3273 98.452 63.6699 98.2861 63.0874C98.1367 62.5049 97.838 62.0388 97.3899 61.6893C96.9419 61.3232 96.3196 61.1401 95.523 61.1401C94.7099 61.1401 94.0212 61.3315 93.457 61.7143C92.9093 62.0804 92.4779 62.5548 92.1626 63.1373C91.8638 63.7198 91.6564 64.3356 91.5402 64.9847L91.4407 65.6588C91.2084 66.9903 91.4075 68.0555 92.0381 68.8544C92.6853 69.6533 93.6644 70.0527 94.9754 70.0527C95.523 70.0527 96.0706 69.9861 96.6183 69.853C97.1659 69.7198 97.6721 69.5035 98.1367 69.2039C98.4022 69.0541 98.6345 68.9875 98.8337 69.0042C99.0494 69.0042 99.2154 69.0707 99.3315 69.2039C99.4643 69.337 99.5473 69.5035 99.5805 69.7032C99.6136 69.8863 99.5805 70.086 99.4809 70.3024C99.3979 70.5021 99.2403 70.6768 99.0079 70.8266C98.4437 71.2261 97.7716 71.5257 96.9917 71.7254C96.2117 71.9085 95.4815 72 94.8011 72Z" fill="#2BB39B"/>
<path d="M103.367 71.9501C102.985 71.9501 102.703 71.8169 102.52 71.5506C102.338 71.2843 102.28 70.9182 102.346 70.4522L103.89 60.6657C103.956 60.2497 104.114 59.9417 104.363 59.742C104.611 59.5257 104.935 59.4175 105.333 59.4175C105.698 59.4175 105.972 59.534 106.155 59.767C106.337 60 106.387 60.3495 106.304 60.8155L106.03 62.663L105.881 62.2386C106.296 61.3065 106.893 60.5992 107.673 60.1165C108.47 59.6172 109.407 59.3675 110.486 59.3675C111.382 59.3675 112.129 59.5506 112.726 59.9168C113.34 60.2829 113.772 60.8405 114.021 61.5895C114.286 62.3384 114.328 63.2871 114.145 64.4355L113.174 70.7018C113.125 71.1179 112.975 71.4341 112.726 71.6505C112.477 71.8502 112.145 71.9501 111.731 71.9501C111.332 71.9501 111.042 71.8169 110.859 71.5506C110.677 71.2843 110.619 70.9265 110.685 70.4771L111.631 64.4854C111.797 63.4369 111.714 62.663 111.382 62.1637C111.05 61.6477 110.453 61.3897 109.59 61.3897C108.478 61.3897 107.59 61.7309 106.926 62.4133C106.279 63.0957 105.864 64.0277 105.682 65.2094L104.811 70.7018C104.694 71.534 104.213 71.9501 103.367 71.9501Z" fill="#2BB39B"/>
<path d="M121.294 72C120.364 72 119.551 71.792 118.854 71.3759C118.174 70.9431 117.634 70.3356 117.236 69.5534C116.854 68.7712 116.664 67.8474 116.664 66.7822C116.664 65.4175 116.904 64.1775 117.385 63.0624C117.867 61.9307 118.564 61.0319 119.476 60.3662C120.389 59.7004 121.484 59.3675 122.762 59.3675C123.725 59.3675 124.571 59.6089 125.301 60.0915C126.048 60.5576 126.562 61.2649 126.844 62.2136L126.67 62.1886L127.766 55.1983C127.832 54.7656 127.981 54.4577 128.214 54.2746C128.463 54.0915 128.794 54 129.209 54C129.591 54 129.873 54.1248 130.056 54.3745C130.238 54.6075 130.296 54.957 130.23 55.423L127.815 70.6768C127.749 71.0929 127.591 71.4092 127.342 71.6255C127.11 71.8419 126.786 71.9501 126.372 71.9501C125.99 71.9501 125.708 71.8169 125.525 71.5506C125.359 71.2843 125.318 70.9182 125.401 70.4522L125.675 68.8044L125.774 69.3287C125.326 70.1442 124.72 70.7933 123.957 71.276C123.194 71.7587 122.306 72 121.294 72ZM122.215 70.0527C123.061 70.0527 123.774 69.8114 124.355 69.3287C124.936 68.846 125.376 68.2053 125.675 67.4064C125.99 66.5908 126.148 65.6921 126.148 64.7101C126.148 63.6117 125.882 62.7795 125.351 62.2136C124.82 61.6311 124.09 61.3398 123.16 61.3398C122.314 61.3398 121.601 61.5811 121.02 62.0638C120.439 62.5298 119.991 63.1706 119.676 63.9861C119.36 64.785 119.203 65.6838 119.203 66.6824C119.203 67.7642 119.468 68.5964 119.999 69.1789C120.53 69.7614 121.269 70.0527 122.215 70.0527Z" fill="#2BB39B"/>
<path d="M135.254 72C134.54 72 133.876 71.8419 133.262 71.5257C132.648 71.1928 132.159 70.7517 131.794 70.2025C131.429 69.6366 131.246 69.0042 131.246 68.3051C131.246 67.4397 131.478 66.7406 131.943 66.208C132.424 65.6755 133.171 65.2843 134.183 65.0347C135.196 64.7684 136.498 64.6352 138.091 64.6352H140.083L139.859 66.1831H138.315C137.17 66.1831 136.258 66.2413 135.577 66.3578C134.913 66.4743 134.44 66.6824 134.158 66.982C133.876 67.2649 133.735 67.656 133.735 68.1553C133.735 68.8211 133.951 69.3287 134.382 69.6782C134.83 70.0277 135.361 70.2025 135.975 70.2025C136.54 70.2025 137.062 70.0777 137.544 69.828C138.025 69.5784 138.432 69.2205 138.763 68.7545C139.112 68.2718 139.336 67.6976 139.436 67.0319L139.908 64.0361C140.058 63.154 139.933 62.4799 139.535 62.0139C139.153 61.5478 138.465 61.3148 137.469 61.3148C136.888 61.3148 136.324 61.3731 135.776 61.4896C135.245 61.6061 134.706 61.8058 134.158 62.0888C133.909 62.2219 133.677 62.2718 133.461 62.2386C133.246 62.1886 133.071 62.0971 132.939 61.9639C132.806 61.8141 132.731 61.6394 132.715 61.4397C132.698 61.2399 132.748 61.0402 132.864 60.8405C132.997 60.6408 133.212 60.466 133.511 60.3162C134.175 59.9834 134.88 59.742 135.627 59.5922C136.374 59.4424 137.087 59.3675 137.768 59.3675C138.979 59.3675 139.933 59.5922 140.63 60.0416C141.344 60.491 141.825 61.1151 142.074 61.914C142.34 62.7129 142.389 63.6366 142.223 64.6852L141.278 70.7018C141.228 71.1179 141.078 71.4341 140.829 71.6505C140.597 71.8502 140.29 71.9501 139.908 71.9501C139.543 71.9501 139.27 71.8336 139.087 71.6006C138.904 71.3509 138.846 71.0014 138.913 70.552L139.187 68.7295L139.386 69.104C139.17 69.7531 138.838 70.3024 138.39 70.7517C137.959 71.1845 137.469 71.5007 136.921 71.7004C136.39 71.9001 135.834 72 135.254 72Z" fill="#2BB39B"/>
<path d="M149.32 72C148.541 72 147.785 71.9168 147.055 71.7503C146.325 71.5673 145.695 71.3343 145.163 71.0513C144.898 70.9182 144.715 70.7517 144.616 70.552C144.516 70.3356 144.475 70.1276 144.491 69.9279C144.525 69.7282 144.599 69.5617 144.715 69.4286C144.848 69.2788 145.014 69.1872 145.213 69.154C145.429 69.1207 145.661 69.1706 145.91 69.3037C146.441 69.6033 146.997 69.828 147.578 69.9778C148.159 70.111 148.748 70.1775 149.345 70.1775C150.192 70.1775 150.847 70.0111 151.312 69.6782C151.777 69.3454 152.009 68.896 152.009 68.3301C152.009 67.9473 151.876 67.6311 151.611 67.3814C151.362 67.1318 150.988 66.957 150.49 66.8571L148.175 66.3329C147.312 66.1498 146.632 65.792 146.134 65.2594C145.653 64.7268 145.412 64.061 145.412 63.2621C145.412 62.5298 145.612 61.8724 146.01 61.2899C146.425 60.7074 147.022 60.2413 147.802 59.8918C148.599 59.5423 149.536 59.3675 150.615 59.3675C151.245 59.3675 151.901 59.4591 152.581 59.6422C153.262 59.8252 153.843 60.0749 154.324 60.3911C154.556 60.5409 154.714 60.724 154.797 60.9404C154.896 61.1401 154.921 61.3398 154.871 61.5395C154.838 61.7226 154.755 61.8807 154.623 62.0139C154.506 62.1304 154.34 62.1969 154.125 62.2136C153.926 62.2302 153.702 62.1637 153.453 62.0139C153.038 61.7476 152.573 61.5479 152.059 61.4147C151.544 61.2816 151.021 61.215 150.49 61.215C149.627 61.215 148.947 61.3897 148.449 61.7393C147.968 62.0888 147.727 62.5548 147.727 63.1373C147.727 63.4868 147.835 63.7947 148.051 64.061C148.267 64.3107 148.615 64.4854 149.096 64.5853L151.411 65.1096C152.341 65.3259 153.054 65.6921 153.552 66.208C154.067 66.7074 154.324 67.3565 154.324 68.1553C154.324 69.3703 153.867 70.319 152.955 71.0014C152.042 71.6671 150.831 72 149.32 72Z" fill="#2BB39B"/>
<path d="M157.843 71.9501C157.445 71.9501 157.154 71.8169 156.972 71.5506C156.806 71.2843 156.756 70.9182 156.822 70.4522L159.212 55.2483C159.278 54.8322 159.428 54.5243 159.66 54.3245C159.909 54.1082 160.241 54 160.656 54C161.037 54 161.32 54.1248 161.502 54.3745C161.701 54.6241 161.768 54.982 161.701 55.448L160.631 62.2386H160.357C160.772 61.3065 161.369 60.5992 162.149 60.1165C162.946 59.6172 163.884 59.3675 164.962 59.3675C165.858 59.3675 166.605 59.5506 167.202 59.9168C167.816 60.2829 168.248 60.8405 168.497 61.5895C168.762 62.3384 168.804 63.2871 168.621 64.4355L167.651 70.7018C167.601 71.1012 167.451 71.4092 167.202 71.6255C166.954 71.8419 166.622 71.9501 166.207 71.9501C165.809 71.9501 165.518 71.8252 165.336 71.5756C165.153 71.3093 165.095 70.9431 165.161 70.4771L166.107 64.4854C166.273 63.4369 166.19 62.663 165.858 62.1637C165.526 61.6477 164.929 61.3897 164.066 61.3897C162.954 61.3897 162.066 61.7309 161.403 62.4133C160.755 63.0957 160.341 64.0277 160.158 65.2094L159.287 70.7018C159.171 71.534 158.689 71.9501 157.843 71.9501Z" fill="#2BB39B"/>
<path d="M177.761 72C176.799 72 175.944 71.767 175.197 71.301C174.467 70.835 173.961 70.1276 173.679 69.1789L173.878 68.7295L173.579 70.7018C173.529 71.1012 173.388 71.4092 173.156 71.6255C172.94 71.8419 172.625 71.9501 172.21 71.9501C171.812 71.9501 171.513 71.8252 171.314 71.5756C171.131 71.3093 171.073 70.9431 171.14 70.4771L173.554 55.2483C173.621 54.8322 173.77 54.5243 174.002 54.3245C174.251 54.1082 174.583 54 174.998 54C175.396 54 175.687 54.1248 175.869 54.3745C176.052 54.6241 176.11 54.9903 176.044 55.473L174.998 62.0638H174.724C175.172 61.215 175.778 60.5576 176.541 60.0915C177.305 59.6089 178.193 59.3675 179.205 59.3675C180.134 59.3675 180.947 59.5839 181.644 60.0166C182.341 60.4327 182.881 61.0319 183.262 61.8141C183.644 62.5964 183.835 63.5284 183.835 64.6103C183.835 65.9584 183.594 67.1983 183.113 68.3301C182.648 69.4452 181.96 70.3356 181.047 71.0014C180.134 71.6671 179.039 72 177.761 72ZM177.363 70.0527C178.209 70.0527 178.923 69.8114 179.504 69.3287C180.084 68.846 180.524 68.2053 180.823 67.4064C181.138 66.5908 181.296 65.6921 181.296 64.7101C181.296 63.6117 181.03 62.7795 180.499 62.2136C179.968 61.6311 179.238 61.3398 178.309 61.3398C177.479 61.3398 176.765 61.5811 176.168 62.0638C175.587 62.5298 175.139 63.1706 174.824 63.9861C174.508 64.785 174.351 65.6838 174.351 66.6824C174.351 67.7642 174.616 68.5964 175.147 69.1789C175.678 69.7614 176.417 70.0527 177.363 70.0527Z" fill="#2BB39B"/>
<path d="M191.348 72C190.203 72 189.224 71.7836 188.411 71.3509C187.597 70.9182 186.967 70.294 186.519 69.4785C186.087 68.663 185.871 67.6976 185.871 66.5825C185.871 65.5173 186.029 64.552 186.344 63.6865C186.676 62.8044 187.133 62.0388 187.714 61.3897C188.311 60.7406 189.008 60.2413 189.804 59.8918C190.601 59.5423 191.472 59.3675 192.418 59.3675C193.563 59.3675 194.542 59.5922 195.355 60.0416C196.169 60.4743 196.791 61.0985 197.222 61.914C197.67 62.7129 197.894 63.6699 197.894 64.785C197.894 65.8502 197.729 66.8239 197.397 67.706C197.081 68.5881 196.625 69.3537 196.028 70.0028C195.447 70.6352 194.758 71.1262 193.961 71.4757C193.165 71.8252 192.294 72 191.348 72ZM191.398 70.0527C192.261 70.0527 192.982 69.8114 193.563 69.3287C194.144 68.846 194.584 68.2053 194.882 67.4064C195.198 66.5908 195.355 65.6921 195.355 64.7101C195.355 63.6117 195.09 62.7795 194.559 62.2136C194.028 61.6311 193.298 61.3398 192.368 61.3398C191.522 61.3398 190.8 61.5811 190.203 62.0638C189.622 62.5298 189.174 63.1706 188.859 63.9861C188.56 64.785 188.411 65.6838 188.411 66.6824C188.411 67.7642 188.676 68.5964 189.207 69.1789C189.738 69.7614 190.468 70.0527 191.398 70.0527Z" fill="#2BB39B"/>
<path d="M203.805 72C203.091 72 202.427 71.8419 201.813 71.5257C201.199 71.1928 200.71 70.7517 200.345 70.2025C199.98 69.6366 199.797 69.0042 199.797 68.3051C199.797 67.4397 200.029 66.7406 200.494 66.208C200.975 65.6755 201.722 65.2843 202.734 65.0347C203.747 64.7684 205.049 64.6352 206.642 64.6352H208.634L208.41 66.1831H206.866C205.721 66.1831 204.809 66.2413 204.128 66.3578C203.464 66.4743 202.992 66.6824 202.709 66.982C202.427 67.2649 202.286 67.656 202.286 68.1553C202.286 68.8211 202.502 69.3287 202.933 69.6782C203.381 70.0277 203.913 70.2025 204.527 70.2025C205.091 70.2025 205.613 70.0777 206.095 69.828C206.576 69.5784 206.983 69.2205 207.314 68.7545C207.663 68.2718 207.887 67.6976 207.987 67.0319L208.46 64.0361C208.609 63.154 208.484 62.4799 208.086 62.0139C207.704 61.5478 207.016 61.3148 206.02 61.3148C205.439 61.3148 204.875 61.3731 204.327 61.4896C203.796 61.6061 203.257 61.8058 202.709 62.0888C202.46 62.2219 202.228 62.2718 202.012 62.2386C201.797 62.1886 201.622 62.0971 201.49 61.9639C201.357 61.8141 201.282 61.6394 201.266 61.4397C201.249 61.2399 201.299 61.0402 201.415 60.8405C201.548 60.6408 201.763 60.466 202.062 60.3162C202.726 59.9834 203.431 59.742 204.178 59.5922C204.925 59.4424 205.638 59.3675 206.319 59.3675C207.53 59.3675 208.484 59.5922 209.181 60.0416C209.895 60.491 210.376 61.1151 210.625 61.914C210.891 62.7129 210.94 63.6366 210.774 64.6852L209.829 70.7018C209.779 71.1179 209.629 71.4341 209.381 71.6505C209.148 71.8502 208.841 71.9501 208.46 71.9501C208.094 71.9501 207.821 71.8336 207.638 71.6006C207.456 71.3509 207.397 71.0014 207.464 70.552L207.738 68.7295L207.937 69.104C207.721 69.7531 207.389 70.3024 206.941 70.7517C206.51 71.1845 206.02 71.5007 205.472 71.7004C204.941 71.9001 204.385 72 203.805 72Z" fill="#2BB39B"/>
<path d="M214.337 71.9501C213.939 71.9501 213.648 71.8252 213.466 71.5756C213.283 71.3259 213.225 70.9764 213.291 70.527L214.86 60.6408C214.926 60.2247 215.075 59.9168 215.308 59.7171C215.557 59.5173 215.88 59.4175 216.278 59.4175C216.66 59.4175 216.942 59.5423 217.125 59.792C217.307 60.025 217.365 60.3745 217.299 60.8405L217.025 62.5132H216.776C217.108 61.5312 217.672 60.7739 218.469 60.2413C219.265 59.6921 220.178 59.3925 221.207 59.3426C221.622 59.3259 221.896 59.3842 222.029 59.5173C222.178 59.6505 222.253 59.8835 222.253 60.2164C222.253 60.6491 222.153 60.9653 221.954 61.165C221.755 61.3648 221.431 61.4896 220.983 61.5395L220.386 61.6144C219.158 61.7309 218.278 62.0971 217.747 62.7129C217.216 63.3287 216.859 64.1692 216.677 65.2344L215.805 70.7517C215.756 71.1512 215.606 71.4508 215.357 71.6505C215.108 71.8502 214.768 71.9501 214.337 71.9501Z" fill="#2BB39B"/>
<path d="M227.037 72C226.108 72 225.295 71.792 224.598 71.3759C223.917 70.9431 223.378 70.3356 222.98 69.5534C222.598 68.7712 222.407 67.8474 222.407 66.7822C222.407 65.4175 222.648 64.1775 223.129 63.0624C223.61 61.9307 224.307 61.0319 225.22 60.3662C226.133 59.7004 227.228 59.3675 228.506 59.3675C229.468 59.3675 230.315 59.6089 231.045 60.0915C231.792 60.5576 232.306 61.2649 232.588 62.2136L232.414 62.1886L233.509 55.1983C233.575 54.7656 233.725 54.4577 233.957 54.2746C234.206 54.0915 234.538 54 234.953 54C235.335 54 235.617 54.1248 235.799 54.3745C235.982 54.6075 236.04 54.957 235.973 55.423L233.559 70.6768C233.493 71.0929 233.335 71.4092 233.086 71.6255C232.854 71.8419 232.53 71.9501 232.115 71.9501C231.733 71.9501 231.451 71.8169 231.269 71.5506C231.103 71.2843 231.061 70.9182 231.144 70.4522L231.418 68.8044L231.518 69.3287C231.07 70.1442 230.464 70.7933 229.701 71.276C228.937 71.7587 228.049 72 227.037 72ZM227.958 70.0527C228.804 70.0527 229.518 69.8114 230.099 69.3287C230.68 68.846 231.119 68.2053 231.418 67.4064C231.733 66.5908 231.891 65.6921 231.891 64.7101C231.891 63.6117 231.626 62.7795 231.095 62.2136C230.564 61.6311 229.833 61.3398 228.904 61.3398C228.058 61.3398 227.344 61.5811 226.763 62.0638C226.182 62.5298 225.734 63.1706 225.419 63.9861C225.104 64.785 224.946 65.6838 224.946 66.6824C224.946 67.7642 225.212 68.5964 225.743 69.1789C226.274 69.7614 227.012 70.0527 227.958 70.0527Z" fill="#2BB39B"/>
</svg>
