<svg width="40" height="52" viewBox="0 0 40 52" fill="none" xmlns="http://www.w3.org/2000/svg">
<path d="M25.425 0.866185C30.5606 2.73671 34.5734 7.80756 34.9569 13.3143C35.0792 14.5393 34.7068 16.1229 35.7239 17.0112C36.5299 17.6789 37.647 18.0044 38.414 18.7659C39.231 19.5273 39.9925 20.7468 39.948 21.6572C39.9703 27.5612 40.0092 43.9822 39.998 47.5963C39.8369 49.4117 38.0416 50.8573 36.5132 51.6905C35.1515 52.2423 33.2617 51.8671 31.6555 51.9664C24.0243 51.9443 8.14513 51.9112 4.53242 51.9002C4.02665 51.8947 3.65426 51.8285 3.1596 51.5636C1.79789 50.7139 -0.141856 48.8433 0.00820995 47.0832C0.019326 42.9835 0.074906 26.2149 0.086022 21.9883C-0.00290605 20.5757 0.947513 19.268 2.0869 18.3962C3.24853 17.5409 4.52687 17.3368 4.88258 16.1615C5.12713 15.378 5.01597 14.2689 5.11601 13.3916C5.3828 10.6658 6.4277 8.66282 7.60044 6.40053C10.813 0.849631 19.1055 -1.35197 25.3249 0.833078L25.425 0.866185ZM10.1071 12.7956C9.91257 14.0758 9.88478 15.8911 10.1627 16.8402C10.4406 17.4471 11.152 17.2319 11.7412 17.2761C16.2654 17.1657 26.6533 17.4858 29.7213 17.1547C30.1437 16.7078 29.9881 16.1173 30.0437 15.3228C30.2493 12.4701 29.0821 9.77741 27.1313 7.80204C24.1577 4.70105 19.0833 4.09961 15.3094 6.0198C12.925 7.40476 10.7796 10.0699 10.1238 12.6963L10.1071 12.7956ZM21.7956 29.8015C19.9114 29.1173 17.8049 29.7297 16.4432 31.1423C14.0422 33.0956 14.7091 36.6656 16.9712 38.4037C18.9499 40.3404 22.5237 39.7169 24.0688 37.4602C26.192 34.9771 24.7246 31.0209 21.8956 29.8456L21.8011 29.807L21.7956 29.8015Z" fill="#5D5D5D"/>
</svg>
