<svg width="42" height="41" viewBox="0 0 42 41" fill="none" xmlns="http://www.w3.org/2000/svg">
<path d="M40.7881 17.3477C40.9424 17.2824 41.1191 17.2981 41.2588 17.3906C41.3986 17.4832 41.4824 17.6399 41.4824 17.8076V33.791C41.4823 33.9916 41.3624 34.1727 41.1777 34.251L26.5215 40.46C26.3671 40.5254 26.1896 40.5096 26.0498 40.417C25.9102 40.3244 25.8262 40.1676 25.8262 40V24.0137C25.8263 23.813 25.947 23.632 26.1318 23.5537L40.7881 17.3477ZM36.9629 8.99219C37.2427 8.98956 37.5131 9.0126 37.7734 9.06055L38.0303 9.11719L38.0654 9.12695L38.4541 9.25684C38.467 9.26084 38.4805 9.26348 38.4932 9.26855C38.6899 9.34768 38.8794 9.4437 39.0586 9.55664L39.2344 9.67578L39.4814 9.87012C40.6879 10.908 41.4675 12.9397 41.5 16.0811C41.5021 16.2836 41.3818 16.4678 41.1953 16.5469L26.4873 22.7754C26.3275 22.8431 26.1434 22.8222 26.002 22.7217C25.8608 22.6211 25.7815 22.4542 25.793 22.2812C25.9508 19.891 26.9192 17.3198 28.3438 15.0957C29.7676 12.8727 31.6773 10.9497 33.7646 9.89355C34.9245 9.30674 35.9978 9.001 36.9629 8.99219ZM31.9414 7.14746L32.2637 7.1875L32.3438 7.20703L34.5801 7.95703C34.781 8.02445 34.9175 8.21191 34.9209 8.42383C34.9241 8.63556 34.7933 8.82669 34.5947 8.90039C34.2237 9.03811 33.8607 9.19668 33.5078 9.37598L33.5068 9.37695C29.0564 11.6286 25.5381 17.133 25.2188 22.2178C25.209 22.3733 25.1266 22.5159 24.9971 22.6025C24.8676 22.689 24.7049 22.7104 24.5576 22.6602L20.665 21.332C20.4584 21.2615 20.3209 21.065 20.3262 20.8467C20.3862 18.4064 21.331 15.7409 22.7686 13.4307C24.2057 11.1212 26.1686 9.11415 28.3184 8.02637L28.7627 7.81445C29.7899 7.35357 30.7545 7.12568 31.6152 7.13281H31.6162C31.7247 7.13369 31.8334 7.13834 31.9414 7.14746ZM17.0752 2.21191C17.2103 2.2194 17.3449 2.23344 17.4785 2.25391L17.6787 2.28906L17.7383 2.30566L29.0752 6.11035C29.2751 6.17764 29.4117 6.36329 29.416 6.57422C29.4202 6.78517 29.2909 6.9756 29.0938 7.05078C28.7418 7.185 28.3968 7.33835 28.0605 7.50879H28.0596C23.6064 9.76191 20.0868 15.2722 19.7715 20.3594C19.7619 20.5148 19.6801 20.6574 19.5508 20.7441C19.4213 20.8309 19.2579 20.8521 19.1104 20.8018L5.9248 16.3047C5.71627 16.2335 5.57922 16.0337 5.58691 15.8135C5.6718 13.3849 6.62229 10.7431 8.05664 8.4541C9.49054 6.16589 11.4398 4.17959 13.5742 3.09961C14.7683 2.49627 15.8889 2.19767 16.873 2.20605L17.0752 2.21191ZM11.8711 0.5C11.9528 0.500281 12.0346 0.501951 12.1162 0.504883L12.3604 0.517578L12.4238 0.526367C12.4446 0.530493 12.4652 0.535257 12.4854 0.541992L14.3613 1.17188C14.5616 1.23918 14.6982 1.42546 14.7021 1.63672C14.706 1.84788 14.5765 2.03855 14.3789 2.11328C14.0169 2.25016 13.6626 2.40704 13.3174 2.58203H13.3164C8.89182 4.82087 5.38847 10.2754 5.03516 15.3369C5.02435 15.4917 4.94179 15.6329 4.8125 15.7188C4.6833 15.8045 4.52179 15.8254 4.375 15.7754L0.848633 14.5732C0.639973 14.5021 0.501981 14.3023 0.509766 14.082C0.597235 11.6433 1.54943 8.99622 2.98438 6.70508C4.41876 4.415 6.36798 2.42926 8.50195 1.34961C9.65996 0.764215 10.7258 0.496771 11.8701 0.5H11.8711ZM12.1953 25.8779H12.7705V23.9678C12.7705 23.7941 12.8609 23.633 13.0088 23.542C13.292 23.3677 13.4785 23.0571 13.4785 22.7031C13.4785 22.1583 13.0385 21.7188 12.498 21.7188C11.9577 21.7188 11.5176 22.1583 11.5176 22.7031C11.5176 23.0493 11.6958 23.3539 11.9678 23.5303C12.1097 23.6224 12.1952 23.78 12.1953 23.9492V25.8779ZM25.252 39.8877C25.2519 40.0495 25.173 40.2012 25.041 40.2949C24.909 40.3886 24.7398 40.4127 24.5869 40.3594L20.6582 38.9893C20.4576 38.9192 20.3234 38.7301 20.3232 38.5176V22.5254C20.3232 22.3641 20.401 22.212 20.5322 22.1182C20.6634 22.0245 20.8318 21.9997 20.9844 22.0518L24.9131 23.3916C25.1156 23.4607 25.252 23.6513 25.252 23.8652V39.8877ZM15.7256 29.0439C15.7255 29.2049 15.6474 29.3563 15.5166 29.4502C15.3858 29.5438 15.2178 29.5691 15.0654 29.5176L9.7002 27.7031C9.49714 27.6345 9.36044 27.4438 9.36035 27.2295V18.7861C9.36035 18.6249 9.43823 18.4738 9.56934 18.3799C9.70048 18.286 9.86884 18.2605 10.0215 18.3125L15.3867 20.1426C15.5892 20.2116 15.7256 20.4023 15.7256 20.6162V29.0439ZM8.78516 28.0029L16.2998 30.5449V21.1533C16.2998 20.992 16.3785 20.84 16.5098 20.7461C16.6409 20.6524 16.8093 20.6276 16.9619 20.6797L19.4102 21.5146C19.6124 21.5838 19.748 21.7745 19.748 21.9883V37.9678C19.748 38.1297 19.6701 38.2822 19.5381 38.376C19.4062 38.4697 19.2368 38.4936 19.084 38.4404L5.91504 33.8467C5.71432 33.7766 5.58009 33.5876 5.58008 33.375V17.4961C5.58021 17.3349 5.65797 17.1836 5.78906 17.0898C5.92024 16.9961 6.08859 16.9714 6.24121 17.0234L8.44629 17.7754C8.64877 17.8445 8.78516 18.0351 8.78516 18.249V28.0029ZM5.00488 32.8262C5.00473 32.9879 4.92585 33.1397 4.79395 33.2334C4.66196 33.327 4.49263 33.3512 4.33984 33.2979L0.834961 32.0752C0.659452 32.0139 0.534376 31.8612 0.505859 31.6816L0.5 31.6025L0.50293 15.7646C0.503014 15.6035 0.580851 15.4522 0.711914 15.3584C0.843069 15.2646 1.01143 15.24 1.16406 15.292L4.66602 16.4863C4.86848 16.5554 5.00488 16.746 5.00488 16.96V32.8262Z" fill="#FBB92A" stroke="#CD8C00" stroke-linejoin="round"/>
</svg>
