<svg width="30" height="40" viewBox="0 0 30 40" fill="none" xmlns="http://www.w3.org/2000/svg">
<path d="M21.5133 8.99494C22.7061 8.99494 23.85 8.5211 24.6935 7.67766C25.5369 6.83422 26.0107 5.69027 26.0107 4.49747C26.0107 3.30467 25.5369 2.16072 24.6935 1.31728C23.85 0.473839 22.7061 0 21.5133 0C20.3205 0 19.1765 0.473839 18.3331 1.31728C17.4896 2.16072 17.0158 3.30467 17.0158 4.49747C17.0158 5.69027 17.4896 6.83422 18.3331 7.67766C19.1765 8.5211 20.3205 8.99494 21.5133 8.99494ZM12.4784 13.2745C11.2321 13.5844 10.3815 14.0501 9.69492 14.6278C8.6655 15.4953 7.83397 16.7466 6.7106 18.7135C6.44752 19.1738 6.01237 19.5107 5.50087 19.6501C4.98937 19.7896 4.44342 19.7201 3.98313 19.4571C3.52285 19.194 3.18592 18.7588 3.04647 18.2473C2.90702 17.7358 2.97647 17.1899 3.23955 16.7296C4.35792 14.7737 5.48829 12.9437 7.12037 11.5705C8.82341 10.1353 10.9082 9.32375 13.7197 9.01093C14.895 8.881 16.1883 8.90699 17.4006 9.44768C18.6729 10.0164 19.6023 11.0348 20.236 12.396C21.0895 14.228 21.7241 15.3184 22.2319 15.951C22.4767 16.2539 22.6476 16.3948 22.7446 16.4577C22.8215 16.5077 22.8545 16.5117 22.8665 16.5137C22.9535 16.5237 23.2363 16.5137 24.0638 16.1469C24.4246 15.987 24.8184 15.7951 25.3001 15.5602L25.4151 15.5043C26.0042 15.2136 26.5987 14.9337 27.1981 14.6647C27.682 14.4523 28.2304 14.4402 28.7232 14.631C29.2161 14.8218 29.6133 15.2 29.8281 15.683C30.0428 16.1659 30.0575 16.7142 29.869 17.208C29.6805 17.7017 29.3041 18.1007 28.8222 18.3177C28.2667 18.5669 27.7159 18.8265 27.1701 19.0963L27.0392 19.1602C26.5784 19.3851 26.1147 19.612 25.6799 19.8039C24.7804 20.2016 23.6311 20.6334 22.3848 20.4825C21.0695 20.3226 20.0561 19.58 19.2216 18.5835L16.4901 23.8536L20.268 28.7688C20.4932 29.0622 20.6326 29.4123 20.6707 29.7802L21.5023 37.7717C21.534 38.035 21.5129 38.302 21.4404 38.5571C21.3679 38.8122 21.2453 39.0503 21.0799 39.2576C20.9145 39.4648 20.7094 39.6371 20.4767 39.7643C20.2441 39.8916 19.9884 39.9712 19.7246 39.9987C19.4609 40.0261 19.1943 40.0008 18.9404 39.9242C18.6865 39.8476 18.4504 39.7213 18.2458 39.5525C18.0412 39.3838 17.8723 39.176 17.7488 38.9413C17.6253 38.7066 17.5497 38.4497 17.5265 38.1855L16.7529 30.7567L14.4582 27.7704L14.4382 27.8074L14.3543 27.6354L10.1147 22.1186C9.90627 21.8474 9.77092 21.5273 9.72157 21.1889C9.67223 20.8504 9.71054 20.505 9.83284 20.1856L12.4784 13.2745Z" fill="#A0A0A0"/>
<path d="M9.45161 24.993L7.98044 28.9508L2.1837 28.4911C1.92015 28.4666 1.65437 28.4947 1.40177 28.5738C1.14917 28.6528 0.91479 28.7813 0.712229 28.9517C0.509669 29.122 0.342963 29.3309 0.221786 29.5663C0.100608 29.8016 0.0273721 30.0586 0.00632794 30.3225C-0.0147162 30.5863 0.0168503 30.8517 0.099196 31.1033C0.181542 31.3548 0.313026 31.5875 0.486019 31.7878C0.659013 31.9881 0.87007 32.1521 1.10694 32.2702C1.34381 32.3883 1.60178 32.4582 1.86588 32.4758L9.16977 33.0555C9.60324 33.09 10.0361 32.9822 10.4028 32.7484C10.7695 32.5147 11.0499 32.1678 11.2016 31.7602L12.326 28.7339L9.45161 24.993Z" fill="#A0A0A0"/>
</svg>
