<svg width="48" height="48" viewBox="0 0 48 48" fill="none" xmlns="http://www.w3.org/2000/svg">
<path d="M42.8435 22.463C42.2594 22.8617 41.4528 22.5836 40.7343 22.4213C35.9502 20.8544 31.1244 22.3332 27.2999 25.4485C22.933 29.0504 21.1112 34.8683 22.3907 40.3338C22.9562 42.7954 22.1867 43.6113 19.6463 43.3563C1.00597 41.6364 -6.9675 17.8134 7.31522 5.42207C17.639 -4.28516 35.8853 -0.414319 41.4343 12.7002C42.5098 14.9531 44.5217 20.3399 42.8806 22.4352L42.8435 22.4677V22.463ZM23.5635 8.58828C22.6363 8.24987 21.1205 8.23133 20.1887 8.63928C19.6138 8.93133 19.5628 9.58033 19.5397 10.1783C19.5119 12.2598 19.5397 16.5896 19.5258 18.9538C19.6741 20.8174 18.5476 21.9624 17.2496 23.0703C16.0768 24.1597 14.9549 25.4624 13.7821 26.5888C13.0079 27.3537 11.8258 28.3551 12.1549 29.5047C12.4516 30.5246 13.6616 31.2385 14.7046 30.9789C15.3953 30.8537 16.1788 30.2372 16.7582 29.6809C18.8489 27.5763 21.0926 25.4902 23.2112 23.4226C24.1291 22.5419 24.2867 21.2856 24.231 19.8439C24.231 16.9836 24.231 13.6273 24.231 10.8459C24.231 9.58497 24.2496 8.88497 23.5681 8.58365L23.5635 8.58828Z" fill="white"/>
<path d="M39.5521 26.1994C53.0421 30.0239 48.8746 49.7629 34.7865 47.5702C31.7919 46.9305 28.8852 45.0066 27.4482 42.3272C22.4647 33.9411 30.072 23.8677 39.5521 26.1994ZM36.219 38.7994C36.6408 39.1702 37.2203 39.0126 37.5634 38.6139C38.3885 37.7285 38.2912 35.508 38.5276 34.0709C38.6528 32.657 38.7779 31.155 37.9203 30.5339C36.9514 29.7643 35.4356 30.2094 35.3104 31.5537C35.1342 33.204 35.0879 35.1186 35.3892 36.8106C35.5144 37.6683 35.7091 38.4053 36.219 38.804V38.7994ZM37.772 40.7696C37.211 40.5146 36.0938 40.4126 35.6766 40.9318C35.3243 41.4417 34.9488 42.457 35.621 42.9437C37.3594 44.1258 39.6773 42.5821 37.8369 40.8113L37.772 40.7696Z" fill="white"/>
</svg>
