<svg width="40" height="44" viewBox="0 0 40 44" fill="none" xmlns="http://www.w3.org/2000/svg">
<path d="M31.6248 42.0466C28.6232 43.3489 25.5608 44 22.4377 44C16.2735 44 10.992 41.8643 6.59322 37.5929C2.19774 33.3182 0 28.1287 0 22.0244C0 16.8968 1.64379 12.2168 4.93136 7.98446C8.21893 3.75213 12.6982 1.10692 18.3693 0.0488345C19.2734 -0.113948 19.9933 0.130227 20.5292 0.781355C21.0618 1.43248 21.1637 2.165 20.835 2.97891C19.6843 5.99038 19.2323 9.14347 19.4788 12.4382C19.7254 15.7361 20.7117 18.8502 22.4377 21.7802C24.1636 24.7917 26.4238 27.2139 29.2183 29.0468C32.0127 30.8765 34.9715 32.0355 38.0947 32.5239C38.9166 32.6866 39.4919 33.175 39.8207 33.9889C40.1494 34.8028 40.0262 35.5353 39.4508 36.1865C37.2317 38.791 34.623 40.7444 31.6248 42.0466Z" fill="white"/>
</svg>
