<svg width="42" height="33" viewBox="0 0 42 33" fill="none" xmlns="http://www.w3.org/2000/svg">
<path d="M38.3271 1.5C39.0272 1.5 39.5085 1.71506 39.8926 2.10742C40.2788 2.50211 40.5 3.00925 40.5 3.75195C40.5 4.49463 40.2787 5.00179 39.8926 5.39648L15.0312 30.7959C14.5376 31.3003 14.0365 31.4999 13.4668 31.5C12.8969 31.5 12.3952 31.3004 11.9014 30.7959L2.10742 20.79C1.72129 20.3954 1.5 19.8882 1.5 19.1455C1.50005 18.4028 1.72117 17.8957 2.10742 17.501C2.49147 17.1086 2.97277 16.8936 3.67285 16.8936C4.37273 16.8936 4.85332 17.1087 5.2373 17.501L12.3945 24.8135L13.4668 25.9082L14.5381 24.8135L36.7627 2.10742C37.1467 1.71518 37.6273 1.50004 38.3271 1.5Z" fill="white" stroke="white" stroke-width="3"/>
</svg>
