<svg width="151" height="44" viewBox="0 0 151 44" fill="none" xmlns="http://www.w3.org/2000/svg">
<path d="M0.25 18.4953C0.25 16.5116 0.98329 14.9911 2.43785 13.9221C3.89241 12.853 6.05622 12.3185 8.92927 12.3185V15.8226C7.10206 17.2718 6.14036 18.3052 5.69558 19.0179L6.1644 19.2555C7.48673 17.4381 10.7565 14.8367 12.8121 13.8271C14.8677 12.8174 17.1517 12.3185 19.6642 12.3185C21.876 12.3185 23.8235 12.7699 25.5305 13.6845C27.2255 14.5992 28.5718 15.8464 29.5335 17.45C30.5072 19.0536 30.9881 20.8472 30.9881 22.819V38.3204C30.9881 40.019 30.2307 41.2425 28.7401 41.9671C27.2375 42.7036 24.9655 43.0599 21.9121 43.0599V24.0544C21.9121 22.7121 21.4313 21.5837 20.4936 20.669C19.5439 19.7544 18.2096 19.303 16.4906 19.303C14.3749 19.303 12.6438 19.9207 11.3215 21.1442C9.99915 22.3677 9.33798 23.9119 9.33798 25.7768V38.3086C9.33798 40.0072 8.59268 41.2306 7.11407 41.9552C5.63547 42.6798 3.35146 43.048 0.262024 43.048V18.4715L0.25 18.4953Z" fill="#2BB39B"/>
<path d="M32.2263 17.2481C32.2263 15.5494 32.9716 14.326 34.4743 13.6014C35.9769 12.8649 38.2489 12.5086 41.3023 12.5086V38.5105C41.3023 40.2091 40.5449 41.4326 39.0543 42.1572C37.5517 42.8936 35.2797 43.25 32.2263 43.25V17.2481Z" fill="#2BB39B"/>
<path d="M36.7702 9.04006C39.479 9.04006 41.6749 7.07233 41.6749 4.64503C41.6749 2.21772 39.479 0.25 36.7702 0.25C34.0615 0.25 31.8656 2.21772 31.8656 4.64503C31.8656 7.07233 34.0615 9.04006 36.7702 9.04006Z" fill="#2BB39B"/>
<path d="M42.5404 18.4953C42.5404 16.5116 43.2497 14.9912 44.6562 13.9221C46.0746 12.853 48.2144 12.3185 51.0875 12.3185V15.8227C49.8493 17.1412 48.9597 18.0914 48.527 18.8041L48.9958 19.0417C50.4143 17.1412 52.7824 14.7417 54.3091 13.7796C55.8358 12.8055 57.651 12.3304 59.7787 12.3304C63.5293 12.3304 66.1379 14.0171 67.5925 17.3787C68.6984 15.7989 70.1049 14.5635 71.836 13.6727C73.555 12.7818 75.5024 12.3423 77.6662 12.3423C80.6715 12.3423 83.0637 13.3282 84.8549 15.3119C86.646 17.2956 87.5356 19.8019 87.5356 22.8547V38.3561C87.5356 40.0547 86.8023 41.2782 85.3477 42.0028C83.8932 42.7273 81.6332 43.0956 78.5919 43.0956V23.5555C78.5919 22.2133 78.2553 21.1442 77.5941 20.3483C76.9329 19.5525 75.8991 19.1605 74.4806 19.1605C73.0621 19.1605 71.872 19.6119 70.8983 20.4909C69.9246 21.3699 69.4437 22.8785 69.4437 24.9691V38.3323C69.4437 40.0309 68.7225 41.2544 67.292 41.979C65.8615 42.7155 63.6375 43.0718 60.6323 43.0718V23.5318C60.6323 22.1895 60.2957 21.1204 59.6345 20.3246C58.9733 19.5287 57.9515 19.1367 56.5811 19.1367C53.1791 19.1367 51.4842 21.1798 51.4842 25.2541V38.3204C51.4842 40.0191 50.7509 41.2425 49.2963 41.9671C47.8417 42.6917 45.5818 43.0599 42.5404 43.0599V18.4834V18.4953Z" fill="#2BB39B"/>
<path d="M88.389 5.78534C88.389 4.12236 89.1463 2.81573 90.673 1.86545C92.1997 0.915174 94.5078 0.440036 97.5972 0.440036V13.9815C96.8399 14.4566 95.3493 15.6088 95.1209 15.9177L95.3853 16.2146C97.5972 14.2784 99.0878 13.7083 101.011 13.15C102.935 12.5917 104.666 12.3185 106.216 12.3185C110.147 12.3185 113.285 13.3163 115.629 15.3119C117.973 17.3074 119.139 19.8969 119.139 23.0566V32.2624C119.139 34.3174 118.55 36.1704 117.384 37.8097C116.218 39.4489 114.667 40.7436 112.744 41.6701C110.82 42.5967 108.777 43.0599 106.613 43.0599C104.185 43.0599 102.117 42.6323 100.422 41.7889C98.7272 40.9337 96.4071 38.9737 95.0487 37.3108L94.7121 37.5483C94.9285 37.9047 96.1306 39.1163 96.7437 39.7934C96.7437 40.8268 96.1066 41.6226 94.8203 42.1928C93.5341 42.763 91.3943 43.048 88.389 43.048V5.78534ZM108.428 34.9351C109.51 34.1867 110.051 33.0939 110.051 31.6685V23.6505C110.051 22.2608 109.51 21.1917 108.428 20.4434C107.346 19.695 105.784 19.3149 103.752 19.3149C101.901 19.3149 100.386 19.7069 99.208 20.5027C98.042 21.2986 97.4529 22.2608 97.4529 23.413V31.9655C97.4529 33.1533 98.042 34.1273 99.208 34.8994C100.374 35.6715 101.889 36.0516 103.752 36.0516C105.784 36.0516 107.346 35.6715 108.428 34.9232V34.9351Z" fill="#2BB39B"/>
<path d="M123.226 40.1378C121.279 38.1779 120.305 35.6953 120.305 32.69V5.19143C120.305 3.49281 121.051 2.26933 122.529 1.54474C124.008 0.80828 126.292 0.451926 129.381 0.451926V32.3931C129.381 33.6997 129.718 34.6381 130.379 35.2083C131.04 35.7785 132.074 36.0635 133.493 36.0635C135.175 36.0635 136.822 35.6715 138.457 34.8757C138.938 35.2677 139.335 35.7666 139.623 36.3605C139.912 36.9544 140.056 37.5483 140.056 38.1423C140.056 39.4132 139.359 40.5417 137.964 41.5514C136.57 42.561 134.55 43.0599 131.906 43.0599C128.059 43.0599 125.174 42.0859 123.226 40.126V40.1378Z" fill="#2BB39B"/>
<path d="M140.801 17.2481C140.801 15.5494 141.547 14.326 143.049 13.6014C144.552 12.8649 146.824 12.5086 149.877 12.5086V38.5105C149.877 40.2091 149.12 41.4326 147.629 42.1572C146.127 42.8936 143.855 43.25 140.801 43.25V17.2481Z" fill="#2BB39B"/>
<path d="M145.345 9.04006C148.054 9.04006 150.25 7.07233 150.25 4.64503C150.25 2.21772 148.054 0.25 145.345 0.25C142.637 0.25 140.441 2.21772 140.441 4.64503C140.441 7.07233 142.637 9.04006 145.345 9.04006Z" fill="#2BB39B"/>
<path d="M0.25 18.4953H0C0 18.611 0.079411 18.7116 0.191965 18.7385C0.30452 18.7653 0.4208 18.7114 0.473056 18.6082L0.25 18.4953ZM8.92927 12.3185H9.17927C9.17927 12.1804 9.06734 12.0685 8.92927 12.0685V12.3185ZM8.92927 15.8226L9.08462 16.0185C9.14441 15.9711 9.17927 15.8989 9.17927 15.8226H8.92927ZM5.69558 19.0179L5.48349 18.8856C5.44634 18.9451 5.43592 19.0175 5.45476 19.0851C5.47361 19.1527 5.51999 19.2092 5.58258 19.2409L5.69558 19.0179ZM6.1644 19.2555L6.0514 19.4785C6.16085 19.534 6.29437 19.5018 6.36656 19.4026L6.1644 19.2555ZM25.5305 13.6845L25.6492 13.4645L25.6485 13.4642L25.5305 13.6845ZM29.5335 17.45L29.3191 17.5786L29.3198 17.5797L29.5335 17.45ZM28.7401 41.9671L28.6308 41.7423L28.6301 41.7426L28.7401 41.9671ZM21.9121 43.0599H21.6621C21.6621 43.198 21.774 43.3099 21.9121 43.3099V43.0599ZM20.4936 20.669L20.6682 20.4901L20.667 20.489L20.4936 20.669ZM0.262024 43.048H0.0120237C0.0120237 43.1861 0.123953 43.298 0.262024 43.298V43.048ZM0.262024 18.4715H0.512024C0.512024 18.3558 0.432613 18.2552 0.320058 18.2284C0.207504 18.2015 0.0912241 18.2554 0.0389678 18.3586L0.262024 18.4715ZM34.4743 13.6014L34.5828 13.8266L34.5843 13.8259L34.4743 13.6014ZM41.3023 12.5086H41.5523C41.5523 12.3705 41.4403 12.2586 41.3023 12.2586V12.5086ZM39.0543 42.1572L38.945 41.9323L38.9443 41.9327L39.0543 42.1572ZM32.2263 43.25H31.9763C31.9763 43.3881 32.0882 43.5 32.2263 43.5V43.25ZM42.2904 18.4953C42.2904 18.6334 42.4024 18.7453 42.5404 18.7453C42.6785 18.7453 42.7904 18.6334 42.7904 18.4953H42.5404H42.2904ZM44.6562 13.9221L44.5057 13.7224L44.5049 13.7231L44.6562 13.9221ZM51.0875 12.3185H51.3375C51.3375 12.1804 51.2255 12.0685 51.0875 12.0685V12.3185ZM51.0875 15.8227L51.2697 15.9938C51.3132 15.9474 51.3375 15.8862 51.3375 15.8227H51.0875ZM48.527 18.8041L48.3133 18.6744C48.2771 18.7339 48.2674 18.8058 48.2866 18.8728C48.3057 18.9397 48.3518 18.9957 48.414 19.0271L48.527 18.8041ZM48.9958 19.0417L48.8828 19.2647C48.9912 19.3197 49.1234 19.2887 49.1961 19.1912L48.9958 19.0417ZM54.3091 13.7796L54.4424 13.9911L54.4436 13.9903L54.3091 13.7796ZM67.5925 17.3787L67.3631 17.478C67.399 17.5611 67.4771 17.6183 67.5672 17.6275C67.6573 17.6366 67.7454 17.5963 67.7973 17.5221L67.5925 17.3787ZM71.836 13.6727L71.9504 13.8949L71.951 13.8946L71.836 13.6727ZM78.5919 43.0956H78.3419C78.3419 43.2337 78.4538 43.3456 78.5919 43.3456V43.0956ZM67.292 41.979L67.179 41.756L67.1775 41.7567L67.292 41.979ZM60.6323 43.0718H60.3823C60.3823 43.2099 60.4942 43.3218 60.6323 43.3218V43.0718ZM42.5404 43.0599H42.2904C42.2904 43.198 42.4024 43.3099 42.5404 43.3099V43.0599ZM42.7904 18.4834C42.7904 18.3454 42.6785 18.2334 42.5404 18.2334C42.4024 18.2334 42.2904 18.3454 42.2904 18.4834H42.5404H42.7904ZM97.5972 0.440036H97.8472C97.8472 0.301965 97.7353 0.190036 97.5972 0.190036V0.440036ZM97.5972 13.9815L97.7301 14.1932C97.803 14.1475 97.8472 14.0675 97.8472 13.9815H97.5972ZM95.1209 15.9177L94.9199 15.769C94.8495 15.8641 94.8555 15.9956 94.9342 16.0839L95.1209 15.9177ZM95.3853 16.2146L95.1986 16.3809C95.2899 16.4834 95.4467 16.4931 95.55 16.4027L95.3853 16.2146ZM100.422 41.7889L100.31 42.0121L100.311 42.0128L100.422 41.7889ZM95.0487 37.3108L95.2423 37.1526C95.1593 37.0509 95.0118 37.0308 94.9046 37.1065L95.0487 37.3108ZM94.7121 37.5483L94.568 37.3441C94.4606 37.4198 94.4303 37.5658 94.4984 37.6781L94.7121 37.5483ZM96.7437 39.7934H96.9937C96.9937 39.7313 96.9707 39.6715 96.929 39.6255L96.7437 39.7934ZM88.389 43.048H88.139C88.139 43.1861 88.2509 43.298 88.389 43.298V43.048ZM108.428 34.9351H108.178C108.178 35.028 108.23 35.1133 108.312 35.1565C108.395 35.1996 108.494 35.1936 108.57 35.1407L108.428 34.9351ZM99.208 20.5027L99.0681 20.2956L99.0671 20.2963L99.208 20.5027ZM108.428 34.9232H108.678C108.678 34.8302 108.627 34.7449 108.544 34.7018C108.462 34.6586 108.363 34.6647 108.286 34.7176L108.428 34.9232ZM123.226 40.1378L123.049 40.314C123.12 40.3859 123.228 40.4076 123.322 40.369C123.415 40.3304 123.476 40.2391 123.476 40.1378H123.226ZM122.529 1.54474L122.639 1.76924L122.641 1.76852L122.529 1.54474ZM129.381 0.451926H129.631C129.631 0.313855 129.519 0.201926 129.381 0.201926V0.451926ZM138.457 34.8757L138.615 34.6819C138.54 34.6204 138.435 34.6083 138.348 34.6509L138.457 34.8757ZM123.226 40.126L123.404 39.9498C123.332 39.8779 123.225 39.8562 123.131 39.8948C123.038 39.9334 122.976 40.0247 122.976 40.126H123.226ZM143.049 13.6014L143.158 13.8266L143.159 13.8259L143.049 13.6014ZM149.877 12.5086H150.127C150.127 12.3705 150.015 12.2586 149.877 12.2586V12.5086ZM147.629 42.1572L147.52 41.9323L147.519 41.9327L147.629 42.1572ZM140.801 43.25H140.551C140.551 43.3881 140.663 43.5 140.801 43.5V43.25ZM0.25 18.4953H0.5C0.5 16.5829 1.20177 15.1408 2.5859 14.1235L2.43785 13.9221L2.28979 13.7206C0.764813 14.8415 0 16.4402 0 18.4953H0.25ZM2.43785 13.9221L2.5859 14.1235C3.97885 13.0997 6.08031 12.5685 8.92927 12.5685V12.3185V12.0685C6.03212 12.0685 3.80597 12.6063 2.28979 13.7206L2.43785 13.9221ZM8.92927 12.3185H8.67927V15.8226H8.92927H9.17927V12.3185H8.92927ZM8.92927 15.8226L8.77392 15.6268C6.94026 17.081 5.95136 18.1359 5.48349 18.8856L5.69558 19.0179L5.90767 19.1503C6.32936 18.4746 7.26385 17.4626 9.08462 16.0185L8.92927 15.8226ZM5.69558 19.0179L5.58258 19.2409L6.0514 19.4785L6.1644 19.2555L6.27741 19.0325L5.80858 18.7949L5.69558 19.0179ZM6.1644 19.2555L6.36656 19.4026C7.00892 18.5197 8.13754 17.431 9.37058 16.4327C10.6024 15.4353 11.9176 14.545 12.9223 14.0514L12.8121 13.8271L12.7019 13.6027C11.651 14.1188 10.3035 15.034 9.05595 16.0441C7.80963 17.0532 6.64221 18.1739 5.96225 19.1084L6.1644 19.2555ZM12.8121 13.8271L12.9223 14.0514C14.94 13.0604 17.1857 12.5685 19.6642 12.5685V12.3185V12.0685C17.1177 12.0685 14.7954 12.5744 12.7019 13.6027L12.8121 13.8271ZM19.6642 12.3185V12.5685C21.841 12.5685 23.7468 13.0124 25.4124 13.9049L25.5305 13.6845L25.6485 13.4642C23.9001 12.5273 21.9111 12.0685 19.6642 12.0685V12.3185ZM25.5305 13.6845L25.4117 13.9045C27.0702 14.7995 28.3822 16.0163 29.3191 17.5786L29.5335 17.45L29.7479 17.3214C28.7614 15.6764 27.3807 14.3988 25.6492 13.4645L25.5305 13.6845ZM29.5335 17.45L29.3198 17.5797C30.2682 19.1416 30.7381 20.8898 30.7381 22.819H30.9881H31.2381C31.2381 20.8046 30.7463 18.9655 29.7472 17.3202L29.5335 17.45ZM30.9881 22.819H30.7381V38.3204H30.9881H31.2381V22.819H30.9881ZM30.9881 38.3204H30.7381C30.7381 39.1319 30.5575 39.8151 30.2103 40.3777C29.8633 40.9401 29.3403 41.3974 28.6308 41.7423L28.7401 41.9671L28.8494 42.192C29.6305 41.8123 30.2315 41.2955 30.6358 40.6403C31.04 39.9854 31.2381 39.2076 31.2381 38.3204H30.9881ZM28.7401 41.9671L28.6301 41.7426C27.1799 42.4534 24.9548 42.8099 21.9121 42.8099V43.0599V43.3099C24.9761 43.3099 27.295 42.9538 28.8501 42.1916L28.7401 41.9671ZM21.9121 43.0599H22.1621V24.0544H21.9121H21.6621V43.0599H21.9121ZM21.9121 24.0544H22.1621C22.1621 22.645 21.6542 21.4519 20.6682 20.4901L20.4936 20.669L20.319 20.848C21.2083 21.7154 21.6621 22.7793 21.6621 24.0544H21.9121ZM20.4936 20.669L20.667 20.489C19.6575 19.5167 18.2531 19.053 16.4906 19.053V19.303V19.553C18.1661 19.553 19.4304 19.9921 20.3202 20.8491L20.4936 20.669ZM16.4906 19.303V19.053C14.3234 19.053 12.528 19.6872 11.1517 20.9607L11.3215 21.1442L11.4913 21.3277C12.7596 20.1542 14.4263 19.553 16.4906 19.553V19.303ZM11.3215 21.1442L11.1517 20.9607C9.77622 22.2333 9.08798 23.845 9.08798 25.7768H9.33798H9.58798C9.58798 23.9788 10.2221 22.502 11.4913 21.3277L11.3215 21.1442ZM9.33798 25.7768H9.08798V38.3086H9.33798H9.58798V25.7768H9.33798ZM9.33798 38.3086H9.08798C9.08798 39.1207 8.91012 39.8043 8.56705 40.367C8.22426 40.9293 7.70722 41.3862 7.00406 41.7307L7.11407 41.9552L7.22409 42.1797C7.99953 41.7997 8.59444 41.2826 8.99396 40.6273C9.3932 39.9725 9.58798 39.195 9.58798 38.3086H9.33798ZM7.11407 41.9552L7.00406 41.7307C5.57779 42.4297 3.34054 42.798 0.262024 42.798V43.048V43.298C3.36238 43.298 5.69316 42.93 7.22409 42.1797L7.11407 41.9552ZM0.262024 43.048H0.512024V18.4715H0.262024H0.0120237V43.048H0.262024ZM0.262024 18.4715L0.0389678 18.3586L0.0269441 18.3824L0.25 18.4953L0.473056 18.6082L0.48508 18.5844L0.262024 18.4715ZM32.2263 17.2481H32.4763C32.4763 16.4359 32.6542 15.7527 32.9998 15.1904C33.3451 14.6285 33.8676 14.1714 34.5828 13.8266L34.4743 13.6014L34.3657 13.3762C33.5782 13.7559 32.9768 14.2729 32.5738 14.9285C32.1711 15.5838 31.9763 16.3616 31.9763 17.2481H32.2263ZM34.4743 13.6014L34.5843 13.8259C36.0344 13.1151 38.2595 12.7586 41.3023 12.7586V12.5086V12.2586C38.2383 12.2586 35.9193 12.6147 34.3642 13.3769L34.4743 13.6014ZM41.3023 12.5086H41.0523V38.5105H41.3023H41.5523V12.5086H41.3023ZM41.3023 38.5105H41.0523C41.0523 39.3219 40.8717 40.0052 40.5245 40.5678C40.1775 41.1302 39.6545 41.5874 38.945 41.9323L39.0543 42.1572L39.1636 42.382C39.9447 42.0023 40.5457 41.4856 40.95 40.8304C41.3541 40.1755 41.5523 39.3977 41.5523 38.5105H41.3023ZM39.0543 42.1572L38.9443 41.9327C37.4941 42.6434 35.269 43 32.2263 43V43.25V43.5C35.2903 43.5 37.6092 43.1438 39.1643 42.3817L39.0543 42.1572ZM32.2263 43.25H32.4763V17.2481H32.2263H31.9763V43.25H32.2263ZM41.6749 4.64503H41.4249C41.4249 6.90918 39.3674 8.79006 36.7702 8.79006V9.04006V9.29006C39.5906 9.29006 41.9249 7.23549 41.9249 4.64503H41.6749ZM36.7702 9.04006V8.79006C34.1731 8.79006 32.1156 6.90918 32.1156 4.64503H31.8656H31.6156C31.6156 7.23549 33.9499 9.29006 36.7702 9.29006V9.04006ZM31.8656 4.64503H32.1156C32.1156 2.38088 34.1731 0.5 36.7702 0.5V0.25V0C33.9499 0 31.6156 2.05456 31.6156 4.64503H31.8656ZM36.7702 0.25V0.5C39.3674 0.5 41.4249 2.38088 41.4249 4.64503H41.6749H41.9249C41.9249 2.05456 39.5906 0 36.7702 0V0.25ZM42.5404 18.4953H42.7904C42.7904 16.5797 43.4707 15.1371 44.8074 14.1211L44.6562 13.9221L44.5049 13.7231C43.0286 14.8452 42.2904 16.4435 42.2904 18.4953H42.5404ZM44.6562 13.9221L44.8066 14.1217C46.1623 13.1 48.2379 12.5685 51.0875 12.5685V12.3185V12.0685C48.1909 12.0685 45.987 12.6061 44.5057 13.7225L44.6562 13.9221ZM51.0875 12.3185H50.8375V15.8227H51.0875H51.3375V12.3185H51.0875ZM51.0875 15.8227L50.9052 15.6515C49.6767 16.9597 48.7632 17.9335 48.3133 18.6744L48.527 18.8041L48.7406 18.9339C49.1563 18.2494 50.0218 17.3226 51.2697 15.9938L51.0875 15.8227ZM48.527 18.8041L48.414 19.0271L48.8828 19.2647L48.9958 19.0417L49.1088 18.8187L48.64 18.5811L48.527 18.8041ZM48.9958 19.0417L49.1961 19.1912C50.6048 17.3039 52.9515 14.9307 54.4424 13.9911L54.3091 13.7796L54.1758 13.5681C52.6134 14.5528 50.2238 16.9784 48.7954 18.8922L48.9958 19.0417ZM54.3091 13.7796L54.4436 13.9903C55.9229 13.0465 57.6893 12.5804 59.7787 12.5804V12.3304V12.0804C57.6127 12.0804 55.7487 12.5646 54.1747 13.5688L54.3091 13.7796ZM59.7787 12.3304V12.5804C61.616 12.5804 63.1563 12.9932 64.4109 13.8039C65.6652 14.6145 66.6518 15.8342 67.3631 17.478L67.5925 17.3787L67.8219 17.2795C67.0786 15.5616 66.0337 14.2572 64.6823 13.384C63.3314 12.511 61.6921 12.0804 59.7787 12.0804V12.3304ZM67.5925 17.3787L67.7973 17.5221C68.8801 15.9753 70.2557 14.7671 71.9504 13.8949L71.836 13.6727L71.7216 13.4504C69.9541 14.36 68.5167 15.6225 67.3877 17.2354L67.5925 17.3787ZM71.836 13.6727L71.951 13.8946C73.63 13.0245 75.537 12.5923 77.6662 12.5923V12.3423V12.0923C75.4678 12.0923 73.48 12.539 71.7209 13.4507L71.836 13.6727ZM77.6662 12.3423V12.5923C80.6108 12.5923 82.9319 13.5552 84.6693 15.4794L84.8549 15.3119L85.0404 15.1443C83.1955 13.1011 80.7322 12.0923 77.6662 12.0923V12.3423ZM84.8549 15.3119L84.6693 15.4794C86.413 17.4106 87.2856 19.8543 87.2856 22.8547H87.5356H87.7856C87.7856 19.7496 86.879 17.1806 85.0404 15.1443L84.8549 15.3119ZM87.5356 22.8547H87.2856V38.3561H87.5356H87.7856V22.8547H87.5356ZM87.5356 38.3561H87.2856C87.2856 39.1689 87.1104 39.8531 86.7727 40.4161C86.4354 40.9784 85.927 41.4349 85.2363 41.779L85.3477 42.0028L85.4592 42.2265C86.223 41.8461 86.8085 41.3285 87.2015 40.6733C87.5941 40.0187 87.7856 39.2418 87.7856 38.3561H87.5356ZM85.3477 42.0028L85.2363 41.779C83.8347 42.4772 81.6222 42.8456 78.5919 42.8456V43.0956V43.3456C81.6442 43.3456 83.9517 42.9775 85.4592 42.2265L85.3477 42.0028ZM78.5919 43.0956H78.8419V23.5555H78.5919H78.3419V43.0956H78.5919ZM78.5919 23.5555H78.8419C78.8419 22.1715 78.4942 21.0406 77.7864 20.1886L77.5941 20.3483L77.4018 20.5081C78.0163 21.2478 78.3419 22.255 78.3419 23.5555H78.5919ZM77.5941 20.3483L77.7864 20.1886C77.0616 19.3161 75.9437 18.9105 74.4806 18.9105V19.1605V19.4105C75.8545 19.4105 76.8043 19.7889 77.4018 20.5081L77.5941 20.3483ZM74.4806 19.1605V18.9105C73.0038 18.9105 71.753 19.3825 70.7308 20.3053L70.8983 20.4909L71.0658 20.6765C71.991 19.8412 73.1204 19.4105 74.4806 19.4105V19.1605ZM70.8983 20.4909L70.7308 20.3053C69.6794 21.2544 69.1937 22.8507 69.1937 24.9691H69.4437H69.6937C69.6937 22.9062 70.1698 21.4854 71.0658 20.6765L70.8983 20.4909ZM69.4437 24.9691H69.1937V38.3323H69.4437H69.6937V24.9691H69.4437ZM69.4437 38.3323H69.1937C69.1937 39.1459 69.0213 39.8306 68.689 40.3939C68.3572 40.9563 67.8574 41.4124 67.179 41.756L67.292 41.979L67.4049 42.202C68.157 41.8211 68.7332 41.3031 69.1196 40.648C69.5056 39.9937 69.6937 39.2174 69.6937 38.3323H69.4437ZM67.292 41.979L67.1775 41.7567C65.8019 42.4649 63.6279 42.8218 60.6323 42.8218V43.0718V43.3218C63.6472 43.3218 65.921 42.966 67.4064 42.2013L67.292 41.979ZM60.6323 43.0718H60.8823V23.5318H60.6323H60.3823V43.0718H60.6323ZM60.6323 23.5318H60.8823C60.8823 22.1477 60.5346 21.0169 59.8268 20.1648L59.6345 20.3246L59.4422 20.4843C60.0567 21.224 60.3823 22.2313 60.3823 23.5318H60.6323ZM59.6345 20.3246L59.8268 20.1648C59.1031 19.2937 57.9986 18.8867 56.5811 18.8867V19.1367V19.3867C57.9044 19.3867 58.8436 19.7637 59.4422 20.4843L59.6345 20.3246ZM56.5811 19.1367V18.8867C54.8283 18.8867 53.4739 19.4153 52.5647 20.5077C51.6629 21.5912 51.2342 23.1885 51.2342 25.2541H51.4842H51.7342C51.7342 23.2455 52.1529 21.784 52.9491 20.8275C53.7379 19.8798 54.9319 19.3867 56.5811 19.3867V19.1367ZM51.4842 25.2541H51.2342V38.3204H51.4842H51.7342V25.2541H51.4842ZM51.4842 38.3204H51.2342C51.2342 39.1333 51.059 39.8175 50.7213 40.3805C50.384 40.9428 49.8756 41.3992 49.1848 41.7434L49.2963 41.9671L49.4078 42.1909C50.1716 41.8104 50.7571 41.2929 51.1501 40.6376C51.5427 39.9831 51.7342 39.2062 51.7342 38.3204H51.4842ZM49.2963 41.9671L49.1848 41.7434C47.7832 42.4416 45.5708 42.8099 42.5404 42.8099V43.0599V43.3099C45.5928 43.3099 47.9002 42.9419 49.4078 42.1909L49.2963 41.9671ZM42.5404 43.0599H42.7904V18.4834H42.5404H42.2904V43.0599H42.5404ZM42.5404 18.4834H42.2904V18.4953H42.5404H42.7904V18.4834H42.5404ZM88.389 5.78534H88.639C88.639 4.2162 89.3452 2.98643 90.8051 2.07769L90.673 1.86545L90.5409 1.65321C88.9475 2.64502 88.139 4.02851 88.139 5.78534H88.389ZM90.673 1.86545L90.8051 2.07769C92.2729 1.16407 94.5249 0.690036 97.5972 0.690036V0.440036V0.190036C94.4906 0.190036 92.1265 0.666281 90.5409 1.65321L90.673 1.86545ZM97.5972 0.440036H97.3472V13.9815H97.5972H97.8472V0.440036H97.5972ZM97.5972 13.9815L97.4644 13.7697C97.0754 14.0137 96.5059 14.4263 96.0071 14.8147C95.7571 15.0093 95.5221 15.2 95.3341 15.3626C95.1538 15.5185 94.9961 15.6659 94.9199 15.769L95.1209 15.9177L95.3219 16.0663C95.3598 16.015 95.4741 15.9026 95.6612 15.7407C95.8406 15.5856 96.0685 15.4006 96.3143 15.2092C96.8072 14.8254 97.3617 14.4244 97.7301 14.1932L97.5972 13.9815ZM95.1209 15.9177L94.9342 16.0839L95.1986 16.3809L95.3853 16.2146L95.572 16.0484L95.3076 15.7514L95.1209 15.9177ZM95.3853 16.2146L95.55 16.4027C97.7275 14.4966 99.1826 13.9411 101.081 13.3901L101.011 13.15L100.942 12.9099C98.993 13.4755 97.4669 14.0603 95.2207 16.0265L95.3853 16.2146ZM101.011 13.15L101.081 13.3901C102.987 12.8367 104.695 12.5685 106.216 12.5685V12.3185V12.0685C104.637 12.0685 102.882 12.3467 100.942 12.9099L101.011 13.15ZM106.216 12.3185V12.5685C110.105 12.5685 113.179 13.5548 115.467 15.5022L115.629 15.3119L115.791 15.1215C113.39 13.0778 110.19 12.0685 106.216 12.0685V12.3185ZM115.629 15.3119L115.467 15.5022C117.753 17.4485 118.889 19.9673 118.889 23.0566H119.139H119.389C119.389 19.8266 118.193 17.1664 115.791 15.1215L115.629 15.3119ZM119.139 23.0566H118.889V32.2624H119.139H119.389V23.0566H119.139ZM119.139 32.2624H118.889C118.889 34.2663 118.316 36.0685 117.18 37.6647L117.384 37.8097L117.588 37.9546C118.784 36.2723 119.389 34.3685 119.389 32.2624H119.139ZM117.384 37.8097L117.18 37.6647C116.04 39.2678 114.523 40.5357 112.635 41.4449L112.744 41.6701L112.852 41.8954C114.812 40.9515 116.396 39.6299 117.588 37.9546L117.384 37.8097ZM112.744 41.6701L112.635 41.4449C110.746 42.3549 108.74 42.8099 106.613 42.8099V43.0599V43.3099C108.814 43.3099 110.895 42.8384 112.852 41.8954L112.744 41.6701ZM106.613 43.0599V42.8099C104.213 42.8099 102.186 42.3872 100.534 41.5651L100.422 41.7889L100.311 42.0128C102.048 42.8774 104.156 43.3099 106.613 43.3099V43.0599ZM100.422 41.7889L100.535 41.5657C98.8769 40.7292 96.5831 38.7941 95.2423 37.1526L95.0487 37.3108L94.8551 37.4689C96.2311 39.1534 98.5775 41.1382 100.31 42.0121L100.422 41.7889ZM95.0487 37.3108L94.9046 37.1065L94.568 37.3441L94.7121 37.5483L94.8563 37.7526L95.1929 37.515L95.0487 37.3108ZM94.7121 37.5483L94.4984 37.6781C94.5656 37.7886 94.6957 37.9467 94.8466 38.119C95.0021 38.2964 95.194 38.5048 95.3966 38.7214C95.8049 39.1578 96.2534 39.6243 96.5584 39.9612L96.7437 39.7934L96.929 39.6255C96.6209 39.2853 96.1618 38.8075 95.7617 38.3798C95.5601 38.1642 95.3726 37.9606 95.2227 37.7895C95.0682 37.6132 94.9669 37.4862 94.9258 37.4186L94.7121 37.5483ZM96.7437 39.7934H96.4937C96.4937 40.6917 95.9535 41.417 94.719 41.9642L94.8203 42.1928L94.9217 42.4213C96.2597 41.8282 96.9937 40.9619 96.9937 39.7934H96.7437ZM94.8203 42.1928L94.719 41.9642C93.4841 42.5116 91.3901 42.798 88.389 42.798V43.048V43.298C91.3985 43.298 93.584 43.0143 94.9217 42.4213L94.8203 42.1928ZM88.389 43.048H88.639V5.78534H88.389H88.139V43.048H88.389ZM108.428 34.9351L108.57 35.1407C109.727 34.341 110.301 33.1675 110.301 31.6685H110.051H109.801C109.801 33.0203 109.294 34.0324 108.286 34.7295L108.428 34.9351ZM110.051 31.6685H110.301V23.6505H110.051H109.801V31.6685H110.051ZM110.051 23.6505H110.301C110.301 22.1842 109.724 21.0358 108.57 20.2377L108.428 20.4434L108.286 20.649C109.296 21.3476 109.801 22.3373 109.801 23.6505H110.051ZM108.428 20.4434L108.57 20.2377C107.43 19.4489 105.809 19.0649 103.752 19.0649V19.3149V19.5649C105.758 19.5649 107.263 19.9411 108.286 20.649L108.428 20.4434ZM103.752 19.3149V19.0649C101.867 19.0649 100.299 19.4642 99.0681 20.2956L99.208 20.5027L99.348 20.7099C100.473 19.9496 101.935 19.5649 103.752 19.5649V19.3149ZM99.208 20.5027L99.0671 20.2963C97.852 21.1256 97.2029 22.1573 97.2029 23.413H97.4529H97.7029C97.7029 22.3642 98.232 21.4716 99.349 20.7092L99.208 20.5027ZM97.4529 23.413H97.2029V31.9655H97.4529H97.7029V23.413H97.4529ZM97.4529 31.9655H97.2029C97.2029 33.2543 97.8496 34.2998 99.07 35.1079L99.208 34.8994L99.3461 34.691C98.2344 33.9549 97.7029 33.0523 97.7029 31.9655H97.4529ZM99.208 34.8994L99.07 35.1079C100.289 35.915 101.856 36.3016 103.752 36.3016V36.0516V35.8016C101.921 35.8016 100.459 35.428 99.3461 34.691L99.208 34.8994ZM103.752 36.0516V36.3016C105.809 36.3016 107.43 35.9176 108.57 35.1288L108.428 34.9232L108.286 34.7176C107.263 35.4254 105.758 35.8016 103.752 35.8016V36.0516ZM108.428 34.9232H108.178V34.9351H108.428H108.678V34.9232H108.428ZM123.226 40.1378L123.404 39.9616C121.507 38.0529 120.555 35.6356 120.555 32.69H120.305H120.055C120.055 35.7549 121.051 38.3029 123.049 40.314L123.226 40.1378ZM120.305 32.69H120.555V5.19143H120.305H120.055V32.69H120.305ZM120.305 5.19143H120.555C120.555 4.37927 120.733 3.69567 121.076 3.13296C121.419 2.57072 121.936 2.11382 122.639 1.76924L122.529 1.54474L122.419 1.32025C121.644 1.70026 121.049 2.21738 120.649 2.87269C120.25 3.52752 120.055 4.30497 120.055 5.19143H120.305ZM122.529 1.54474L122.641 1.76852C124.066 1.05879 126.301 0.701926 129.381 0.701926V0.451926V0.201926C126.282 0.201926 123.95 0.557771 122.418 1.32097L122.529 1.54474ZM129.381 0.451926H129.131V32.3931H129.381H129.631V0.451926H129.381ZM129.381 32.3931H129.131C129.131 33.7371 129.477 34.7609 130.216 35.3976L130.379 35.2083L130.542 35.019C129.958 34.5153 129.631 33.6623 129.631 32.3931H129.381ZM130.379 35.2083L130.216 35.3976C130.943 36.0248 132.049 36.3135 133.493 36.3135V36.0635V35.8135C132.099 35.8135 131.137 35.5321 130.542 35.019L130.379 35.2083ZM133.493 36.0635V36.3135C135.216 36.3135 136.9 35.9117 138.567 35.1005L138.457 34.8757L138.348 34.6509C136.745 35.4314 135.135 35.8135 133.493 35.8135V36.0635ZM138.457 34.8757L138.299 35.0695C138.751 35.438 139.125 35.9078 139.398 36.4697L139.623 36.3605L139.848 36.2513C139.544 35.6253 139.125 35.0974 138.615 34.6819L138.457 34.8757ZM139.623 36.3605L139.398 36.4697C139.672 37.0334 139.806 37.5902 139.806 38.1423H140.056H140.306C140.306 37.5064 140.151 36.8754 139.848 36.2513L139.623 36.3605ZM140.056 38.1423H139.806C139.806 39.3058 139.173 40.3676 137.818 41.3489L137.964 41.5514L138.111 41.7539C139.545 40.7159 140.306 39.5207 140.306 38.1423H140.056ZM137.964 41.5514L137.818 41.3489C136.484 42.3149 134.525 42.8099 131.906 42.8099V43.0599V43.3099C134.576 43.3099 136.656 42.8072 138.111 41.7539L137.964 41.5514ZM131.906 43.0599V42.8099C128.099 42.8099 125.288 41.8464 123.404 39.9498L123.226 40.126L123.049 40.3022C125.059 42.3254 128.019 43.3099 131.906 43.3099V43.0599ZM123.226 40.126H122.976V40.1378H123.226H123.476V40.126H123.226ZM140.801 17.2481H141.051C141.051 16.4359 141.229 15.7527 141.575 15.1904C141.92 14.6285 142.443 14.1714 143.158 13.8266L143.049 13.6014L142.941 13.3762C142.153 13.7559 141.552 14.2729 141.149 14.9285C140.746 15.5838 140.551 16.3616 140.551 17.2481H140.801ZM143.049 13.6014L143.159 13.8259C144.609 13.1151 146.835 12.7586 149.877 12.7586V12.5086V12.2586C146.813 12.2586 144.494 12.6147 142.939 13.3769L143.049 13.6014ZM149.877 12.5086H149.627V38.5105H149.877H150.127V12.5086H149.877ZM149.877 38.5105H149.627C149.627 39.3219 149.447 40.0052 149.1 40.5678C148.753 41.1302 148.23 41.5874 147.52 41.9323L147.629 42.1572L147.739 42.382C148.52 42.0023 149.121 41.4856 149.525 40.8304C149.929 40.1755 150.127 39.3977 150.127 38.5105H149.877ZM147.629 42.1572L147.519 41.9327C146.069 42.6434 143.844 43 140.801 43V43.25V43.5C143.865 43.5 146.184 43.1438 147.739 42.3817L147.629 42.1572ZM140.801 43.25H141.051V17.2481H140.801H140.551V43.25H140.801ZM150.25 4.64503H150C150 6.90918 147.943 8.79006 145.345 8.79006V9.04006V9.29006C148.166 9.29006 150.5 7.23549 150.5 4.64503H150.25ZM145.345 9.04006V8.79006C142.748 8.79006 140.691 6.90918 140.691 4.64503H140.441H140.191C140.191 7.23549 142.525 9.29006 145.345 9.29006V9.04006ZM140.441 4.64503H140.691C140.691 2.38088 142.748 0.5 145.345 0.5V0.25V0C142.525 0 140.191 2.05456 140.191 4.64503H140.441ZM145.345 0.25V0.5C147.943 0.5 150 2.38088 150 4.64503H150.25H150.5C150.5 2.05456 148.166 0 145.345 0V0.25Z" fill="white"/>
</svg>
