<svg width="726" height="726" viewBox="0 0 726 726" fill="none" xmlns="http://www.w3.org/2000/svg">
<path opacity="0.15" d="M725.642 405.666C718.781 472.183 695.115 500.863 682.337 503.2C677.491 504.084 668.931 504.274 660.182 504.147C621.787 632.951 502.763 726 363.157 726C360.451 726 357.744 725.937 355.038 725.874C217.572 722.336 103.331 629.54 65.8808 504.211C57.1319 504.274 48.5088 504.084 43.5993 503.2C30.885 500.863 7.21867 472.183 0.357961 405.666C-4.23682 361.004 36.4239 341.169 63.6779 332.894C92.1278 227.463 174.267 144.774 278.059 115.147C272.709 109.399 267.233 105.103 262.072 101.882C246.525 92.1535 233.37 92.0903 233.181 92.0903C264.652 51.788 298.83 69.9177 316.895 84.889C325.014 91.585 329.861 97.6493 329.861 97.6493C333.197 91.7113 336.47 86.0892 339.743 80.8461C397.649 -11.8873 445.926 0.557198 445.926 0.557198C408.098 36.1218 400.419 74.9081 399.097 83.4361C399.034 84.5731 398.971 85.1417 398.971 85.1417C399.601 84.6363 400.23 84.1941 400.86 83.7519C477.901 28.9836 492.818 71.2443 492.818 71.2443C479.537 72.5708 448.129 83.6256 427.925 110.22C541.976 134.541 632.298 221.652 662.385 332.957C689.639 341.232 730.236 361.068 725.642 405.666Z" fill="#82B3E1"/>
</svg>
