<svg width="427" height="127" viewBox="0 0 427 127" fill="none" xmlns="http://www.w3.org/2000/svg">
<path d="M118.195 73.4845C118.972 43.6075 95.2214 18.7616 65.1465 17.9897C35.0717 17.2178 10.0613 40.8121 9.28424 70.6891C8.5072 100.566 32.2578 125.412 62.3326 126.184C92.4075 126.956 117.418 103.361 118.195 73.4845Z" fill="#2BB39B"/>
<path d="M53.0775 27.5827C51.2757 22.1031 48.468 19.237 46.014 17.7106C43.2837 16.0195 40.9845 16.0086 40.9403 16.0086C46.4672 9.00258 52.4695 12.1432 55.653 14.7567C57.0679 15.9207 57.9191 16.9749 57.9191 16.9749C58.5049 15.9427 59.0908 14.9653 59.6545 14.0539C69.8351 -2.06643 78.3135 0.0968607 78.3135 0.0968607C71.6701 6.29023 70.3215 13.0217 70.0894 14.5041C70.0673 14.7018 70.0562 14.8006 70.0562 14.8006C70.1668 14.7128 70.2883 14.6359 70.3878 14.559C83.9178 5.03838 86.5486 12.3848 86.5486 12.3848C83.1108 12.7142 72.8086 16.7333 71.9685 27.5717" fill="#2BB39B"/>
<path d="M112.171 56.9574C112.171 56.9574 128.63 58.956 127.425 70.5191C126.22 82.0823 122.064 87.0787 119.831 87.474C117.598 87.8694 110.966 87.474 110.966 87.474" fill="#2BB39B"/>
<path d="M15.3174 56.9573C15.3174 56.9573 -1.14181 58.9449 0.0630638 70.5191C1.26794 82.0932 5.42419 87.0787 7.65708 87.474C9.88996 87.8693 16.5223 87.474 16.5223 87.474" fill="#2BB39B"/>
<path d="M105.261 71.3608C104.63 78.2299 102.691 81.4581 100.096 83.7155C98.0113 85.5359 94.6413 87.4049 92.5562 88.2302C92.0713 88.4244 91.6591 88.57 91.3439 88.6428C89.6225 89.0555 87.8283 89.5894 87.9253 91.8953C88.0223 94.0556 88.7497 97.4538 88.4587 100.148C88.4587 100.342 88.4102 100.536 88.386 100.731C87.8768 103.498 86.5191 108.206 83.8036 110.974C81.0882 113.741 77.7181 116.459 71.3173 118.328C71.3173 118.328 68.3837 119.178 63.6801 119.299C58.9765 119.178 56.0428 118.328 56.0428 118.328C49.6663 116.459 46.2963 113.741 43.5808 110.974C40.8411 108.206 39.4834 103.498 38.9985 100.731C38.9742 100.536 38.95 100.342 38.9257 100.148C38.6348 97.478 39.3621 94.0556 39.4349 91.9196C39.5318 89.6137 37.7377 89.0555 36.0405 88.6671C35.7253 88.5943 35.3374 88.4729 34.8768 88.2787C32.7917 87.4535 29.3973 85.5602 27.2638 83.7398C24.6938 81.5067 22.7299 78.2542 22.0995 71.385C21.4691 64.5159 24.0149 59.0303 24.5483 57.9623C25.0817 56.8943 27.0456 53.5204 30.6581 50.8747C34.2464 48.2533 38.1499 47.2338 43.5566 47.0154C48.939 46.7969 55.3155 48.9572 58.8553 50.1465C62.3709 51.3602 63.7286 51.4087 63.7286 51.4087C63.7286 51.4087 65.1106 51.3602 68.6261 50.1465C72.1659 48.9572 78.5182 46.7969 83.9006 47.0154C84.4098 47.0397 91.3924 47.0154 96.7991 50.8747C100.436 53.4719 102.351 56.8943 102.885 57.9623C103.418 59.0303 105.964 64.5159 105.309 71.385L105.261 71.3608Z" fill="#C6E2CD"/>
<path d="M64.6498 108.352C64.6498 108.352 64.5044 108.352 64.4316 108.352C52.5515 108.279 48.0903 103.206 47.9206 103.012C47.1448 102.114 47.2417 100.731 48.1631 99.9538C49.0601 99.1771 50.4179 99.2742 51.1937 100.172C51.3149 100.294 54.879 103.959 64.4801 104.032C72.5538 104.104 75.8269 100.366 75.9481 100.221C76.724 99.3227 78.0817 99.2014 78.9788 99.9538C79.8758 100.706 80.0213 102.041 79.2697 102.964C79.1 103.182 74.7601 108.352 64.6498 108.352Z" fill="#1D1D1B"/>
<path d="M65.6439 87.8662C65.4257 86.9924 65.256 86.1186 65.6924 85.2447C67.6321 81.3369 77.4756 86.6283 65.6439 87.8662Z" fill="#1D1D1B"/>
<path d="M62.6861 87.8663C62.9043 86.9925 63.074 86.1187 62.6376 85.2449C60.698 81.337 50.8544 86.6284 62.6861 87.8663Z" fill="#1D1D1B"/>
<path d="M54.2731 67.113C54.2731 62.1262 50.235 58.0836 45.2538 58.0836C40.2727 58.0836 36.2346 62.1262 36.2346 67.113V74.1035C36.2346 79.0903 40.2727 83.1329 45.2538 83.1329C50.235 83.1329 54.2731 79.0903 54.2731 74.1035V67.113Z" fill="#FAF5EE"/>
<path d="M91.1016 67.113C91.1016 62.1262 87.0635 58.0836 82.0823 58.0836C77.1012 58.0836 73.0631 62.1262 73.0631 67.113V74.1035C73.0631 79.0903 77.1012 83.1329 82.0823 83.1329C87.0635 83.1329 91.1016 79.0903 91.1016 74.1035V67.113Z" fill="#FAF5EE"/>
<path d="M88.5556 94.3712C92.3719 94.3712 95.4655 91.2741 95.4655 87.4536C95.4655 83.633 92.3719 80.5359 88.5556 80.5359C84.7394 80.5359 81.6458 83.633 81.6458 87.4536C81.6458 91.2741 84.7394 94.3712 88.5556 94.3712Z" fill="#F5B5CC"/>
<path d="M39.0954 94.3712C42.9117 94.3712 46.0053 91.2741 46.0053 87.4536C46.0053 83.633 42.9117 80.5359 39.0954 80.5359C35.2792 80.5359 32.1855 83.633 32.1855 87.4536C32.1855 91.2741 35.2792 94.3712 39.0954 94.3712Z" fill="#F5B5CC"/>
<path d="M87.8609 75.7698C86.7496 80.3896 79.2503 81.1514 77.0767 77.0768C76.1122 75.2596 76.3498 73.1629 76.3009 71.15C76.3428 69.4726 76.2729 67.8651 76.7762 66.2716C77.4891 63.9792 79.6627 62.5813 82.025 62.5184C82.3535 62.5604 82.6051 62.5045 82.7938 62.791C82.8497 63.1475 82.3046 63.5388 82.039 63.8324C81.5078 64.3356 81.0605 64.9646 80.8928 65.6915C80.3336 67.8931 82.2347 70.2484 84.4852 70.3602C85.6523 70.5559 87.1201 70.0457 87.6093 70.6258C87.826 70.8495 87.9098 71.2269 87.9378 71.5554C87.9867 72.8274 88.1405 74.379 87.8889 75.623L87.8539 75.7698H87.8609Z" fill="#1D1D1A"/>
<path d="M50.6973 70.5171C51.3186 71.2013 50.9765 73.4983 50.9556 74.6643C50.5437 80.4243 42.2353 81.5902 39.9592 76.5005C39.0935 74.2035 39.4426 71.5504 39.4077 69.1207C39.1912 66.0208 41.1252 62.9209 44.3717 62.509C44.9512 62.4322 45.9496 62.4671 45.5447 63.2211C45.1537 63.8425 44.4346 64.3591 44.1553 65.0783C43.499 66.5235 44.1483 68.5622 45.4818 69.4419C46.557 70.2239 48.0511 70.4822 49.3986 70.3286C49.7966 70.3007 50.2923 70.2448 50.6205 70.4612L50.6973 70.5171Z" fill="#1D1D1A"/>
<path d="M156.488 57.2004C156.488 53.6039 157.809 50.8474 160.429 48.9092C163.05 46.971 166.947 46.0019 172.122 46.0019V52.3549C168.831 54.9822 167.099 56.8558 166.298 58.148L167.142 58.5787C169.524 55.2837 175.414 50.5674 179.117 48.7369C182.819 46.9064 186.934 46.0019 191.459 46.0019C195.444 46.0019 198.952 46.8202 202.026 48.4785C205.08 50.1367 207.505 52.398 209.237 55.3053C210.991 58.2126 211.857 61.4645 211.857 65.0394V93.1434C211.857 96.223 210.493 98.4411 207.808 99.7548C205.101 101.09 201.009 101.736 195.509 101.736V67.2791C195.509 64.8456 194.642 62.7997 192.953 61.1414C191.243 59.4832 188.839 58.6648 185.743 58.6648C181.932 58.6648 178.814 59.7847 176.432 62.0028C174.05 64.221 172.859 67.0206 172.859 70.4017V93.1218C172.859 96.2014 171.516 98.4196 168.853 99.7333C166.189 101.047 162.075 101.715 156.51 101.715V57.1573L156.488 57.2004Z" fill="#2BB39B"/>
<path d="M214.088 54.9392C214.088 51.8596 215.43 49.6414 218.137 48.3277C220.844 46.9925 224.936 46.3465 230.436 46.3465V93.488C230.436 96.5676 229.072 98.7857 226.387 100.099C223.68 101.435 219.588 102.081 214.088 102.081V54.9392Z" fill="#2BB39B"/>
<path d="M222.273 40.0581C227.152 40.0581 231.108 36.4906 231.108 32.0899C231.108 27.6892 227.152 24.1217 222.273 24.1217C217.393 24.1217 213.438 27.6892 213.438 32.0899C213.438 36.4906 217.393 40.0581 222.273 40.0581Z" fill="#2BB39B"/>
<path d="M232.667 57.2004C232.667 53.604 233.944 50.8474 236.478 48.9092C239.033 46.971 242.887 46.0019 248.063 46.0019V52.3549C245.832 54.7454 244.23 56.4682 243.45 57.7604L244.295 58.1911C246.85 54.7454 251.116 50.3952 253.866 48.6508C256.616 46.8849 259.886 46.0234 263.718 46.0234C270.474 46.0234 275.173 49.0815 277.793 55.1761C279.785 52.3118 282.319 50.0721 285.437 48.457C288.534 46.8418 292.042 46.045 295.939 46.045C301.353 46.045 305.662 47.8324 308.888 51.4289C312.115 55.0253 313.717 59.5694 313.717 65.104V93.208C313.717 96.2876 312.396 98.5058 309.776 99.8194C307.156 101.133 303.085 101.801 297.607 101.801V66.3746C297.607 63.9411 297 62.0029 295.809 60.56C294.618 59.1171 292.756 58.4064 290.201 58.4064C287.646 58.4064 285.502 59.2248 283.748 60.8184C281.994 62.4121 281.128 65.1471 281.128 68.9374V93.1649C281.128 96.2445 279.829 98.4627 277.252 99.7764C274.675 101.112 270.669 101.758 265.256 101.758V66.3315C265.256 63.898 264.649 61.9598 263.458 60.5169C262.268 59.074 260.427 58.3634 257.958 58.3634C251.83 58.3634 248.777 62.0675 248.777 69.4542V93.1434C248.777 96.223 247.456 98.4412 244.836 99.7548C242.216 101.069 238.145 101.736 232.667 101.736V57.1789V57.2004Z" fill="#2BB39B"/>
<path d="M315.254 34.1573C315.254 31.1423 316.619 28.7734 319.369 27.0505C322.119 25.3277 326.276 24.4662 331.841 24.4662V49.0169C330.477 49.8783 327.792 51.9672 327.381 52.5272L327.857 53.0656C331.841 49.5552 334.526 48.5215 337.991 47.5094C341.456 46.4972 344.574 46.0019 347.367 46.0019C354.448 46.0019 360.099 47.8109 364.322 51.4288C368.544 55.0468 370.645 59.7416 370.645 65.4701V82.1602C370.645 85.8859 369.584 89.2454 367.483 92.2173C365.383 95.1892 362.59 97.5366 359.125 99.2164C355.66 100.896 351.979 101.736 348.082 101.736C343.708 101.736 339.983 100.961 336.93 99.4318C333.877 97.8812 329.697 94.3278 327.251 91.3128L326.644 91.7435C327.034 92.3896 329.199 94.5863 330.304 95.8138C330.304 97.6874 329.156 99.1303 326.839 100.164C324.522 101.198 320.668 101.715 315.254 101.715V34.1573ZM351.351 87.0057C353.3 85.649 354.275 83.6677 354.275 81.0834V66.5469C354.275 64.0272 353.3 62.089 351.351 60.7322C349.402 59.3755 346.587 58.6864 342.928 58.6864C339.593 58.6864 336.865 59.397 334.743 60.8399C332.642 62.2828 331.581 64.0272 331.581 66.1161V81.6218C331.581 83.7754 332.642 85.5413 334.743 86.9411C336.843 88.3409 339.572 89.0301 342.928 89.0301C346.587 89.0301 349.402 88.3409 351.351 86.9842V87.0057Z" fill="#2BB39B"/>
<path d="M378.007 96.4383C374.5 92.885 372.746 88.384 372.746 82.9355V33.0805C372.746 30.0009 374.088 27.7827 376.752 26.4691C379.415 25.1339 383.529 24.4878 389.094 24.4878V82.3971C389.094 84.766 389.701 86.4674 390.892 87.5011C392.082 88.5348 393.945 89.0516 396.5 89.0516C399.531 89.0516 402.498 88.3409 405.443 86.8981C406.309 87.6087 407.024 88.5132 407.543 89.59C408.063 90.6668 408.323 91.7436 408.323 92.8204C408.323 95.1247 407.067 97.1706 404.555 99.0011C402.043 100.832 398.405 101.736 393.642 101.736C386.712 101.736 381.515 99.9702 378.007 96.4168V96.4383Z" fill="#2BB39B"/>
<path d="M409.665 54.9392C409.665 51.8596 411.008 49.6414 413.715 48.3277C416.421 46.9925 420.514 46.3465 426.014 46.3465V93.488C426.014 96.5676 424.65 98.7857 421.965 100.099C419.258 101.435 415.165 102.081 409.665 102.081V54.9392Z" fill="#2BB39B"/>
<path d="M417.851 40.0581C422.73 40.0581 426.685 36.4906 426.685 32.0899C426.685 27.6892 422.73 24.1217 417.851 24.1217C412.971 24.1217 409.016 27.6892 409.016 32.0899C409.016 36.4906 412.971 40.0581 417.851 40.0581Z" fill="#2BB39B"/>
<path d="M156.488 57.2004H156.238C156.238 57.3162 156.318 57.4169 156.431 57.4436C156.543 57.4704 156.66 57.4162 156.712 57.3127L156.488 57.2004ZM172.122 46.0019H172.372C172.372 45.8638 172.261 45.7519 172.122 45.7519V46.0019ZM172.122 52.3549L172.278 52.5503C172.338 52.5028 172.372 52.4309 172.372 52.3549H172.122ZM166.298 58.148L166.085 58.0162C166.048 58.0757 166.038 58.1478 166.057 58.2151C166.076 58.2825 166.122 58.3389 166.184 58.3707L166.298 58.148ZM167.142 58.5787L167.029 58.8014C167.138 58.8574 167.273 58.825 167.345 58.7251L167.142 58.5787ZM202.026 48.4785L202.146 48.2588L202.145 48.2584L202.026 48.4785ZM209.237 55.3053L209.022 55.4332L209.023 55.4344L209.237 55.3053ZM207.808 99.7548L207.698 99.5303L207.697 99.5306L207.808 99.7548ZM195.509 101.736H195.259C195.259 101.874 195.371 101.986 195.509 101.986V101.736ZM192.953 61.1414L193.129 60.963L193.127 60.9619L192.953 61.1414ZM156.51 101.715H156.26C156.26 101.853 156.372 101.965 156.51 101.965V101.715ZM156.51 57.1573H156.76C156.76 57.0415 156.68 56.9408 156.568 56.9141C156.455 56.8873 156.339 56.9415 156.287 57.045L156.51 57.1573ZM218.137 48.3277L218.246 48.5527L218.248 48.5519L218.137 48.3277ZM230.436 46.3465H230.686C230.686 46.2084 230.574 46.0965 230.436 46.0965V46.3465ZM226.387 100.099L226.277 99.8748L226.277 99.8752L226.387 100.099ZM214.088 102.081H213.838C213.838 102.219 213.95 102.331 214.088 102.331V102.081ZM232.417 57.2004C232.417 57.3385 232.529 57.4504 232.667 57.4504C232.805 57.4504 232.917 57.3385 232.917 57.2004H232.667H232.417ZM236.478 48.9092L236.327 48.71L236.326 48.7107L236.478 48.9092ZM248.063 46.0019H248.313C248.313 45.8638 248.201 45.7519 248.063 45.7519V46.0019ZM248.063 52.3549L248.245 52.5255C248.289 52.4792 248.313 52.4182 248.313 52.3549H248.063ZM243.45 57.7604L243.236 57.6312C243.2 57.6906 243.191 57.7623 243.21 57.829C243.229 57.8957 243.275 57.9515 243.337 57.9831L243.45 57.7604ZM244.295 58.1911L244.181 58.4138C244.29 58.4692 244.423 58.4381 244.496 58.34L244.295 58.1911ZM253.866 48.6508L254 48.8619L254.001 48.8612L253.866 48.6508ZM277.793 55.1761L277.564 55.2748C277.6 55.3583 277.678 55.4157 277.768 55.4248C277.858 55.434 277.947 55.3934 277.999 55.3188L277.793 55.1761ZM285.437 48.457L285.552 48.679L285.553 48.6786L285.437 48.457ZM297.607 101.801H297.357C297.357 101.939 297.469 102.051 297.607 102.051V101.801ZM277.252 99.7764L277.138 99.5536L277.137 99.5544L277.252 99.7764ZM265.256 101.758H265.006C265.006 101.896 265.118 102.008 265.256 102.008V101.758ZM232.667 101.736H232.417C232.417 101.874 232.529 101.986 232.667 101.986V101.736ZM232.917 57.1789C232.917 57.0408 232.805 56.9289 232.667 56.9289C232.529 56.9289 232.417 57.0408 232.417 57.1789H232.667H232.917ZM331.841 24.4662H332.091C332.091 24.3282 331.979 24.2162 331.841 24.2162V24.4662ZM331.841 49.0169L331.975 49.2282C332.047 49.1824 332.091 49.1026 332.091 49.0169H331.841ZM327.381 52.5272L327.179 52.3791C327.109 52.474 327.115 52.6047 327.193 52.6928L327.381 52.5272ZM327.857 53.0656L327.67 53.2312C327.761 53.3345 327.919 53.3443 328.022 53.2531L327.857 53.0656ZM336.93 99.4318L336.817 99.6547L336.818 99.6553L336.93 99.4318ZM327.251 91.3128L327.445 91.1553C327.362 91.0529 327.213 91.0327 327.106 91.109L327.251 91.3128ZM326.644 91.7435L326.5 91.5397C326.393 91.6155 326.363 91.7607 326.43 91.8727L326.644 91.7435ZM330.304 95.8138H330.554C330.554 95.752 330.531 95.6925 330.49 95.6466L330.304 95.8138ZM315.254 101.715H315.004C315.004 101.853 315.116 101.965 315.254 101.965V101.715ZM351.351 87.0057H351.101C351.101 87.0988 351.153 87.1842 351.236 87.2273C351.318 87.2704 351.418 87.2641 351.494 87.2109L351.351 87.0057ZM334.743 60.8399L334.602 60.6332L334.601 60.6339L334.743 60.8399ZM351.351 86.9842H351.601C351.601 86.8911 351.55 86.8057 351.467 86.7626C351.385 86.7195 351.285 86.7258 351.208 86.779L351.351 86.9842ZM378.007 96.4383L377.83 96.614C377.901 96.6861 378.009 96.7081 378.102 96.6696C378.196 96.6311 378.257 96.5397 378.257 96.4383H378.007ZM376.752 26.4691L376.862 26.6933L376.864 26.6926L376.752 26.4691ZM389.094 24.4878H389.344C389.344 24.3497 389.232 24.2378 389.094 24.2378V24.4878ZM405.443 86.8981L405.601 86.7048C405.526 86.6427 405.421 86.6305 405.333 86.6735L405.443 86.8981ZM378.007 96.4168L378.185 96.2412C378.114 96.169 378.006 96.147 377.913 96.1855C377.819 96.224 377.757 96.3154 377.757 96.4168H378.007ZM413.715 48.3277L413.824 48.5527L413.825 48.5519L413.715 48.3277ZM426.014 46.3465H426.264C426.264 46.2084 426.152 46.0965 426.014 46.0965V46.3465ZM421.965 100.099L421.855 99.8748L421.854 99.8752L421.965 100.099ZM409.665 102.081H409.415C409.415 102.219 409.527 102.331 409.665 102.331V102.081ZM156.488 57.2004H156.738C156.738 53.6747 158.028 50.9964 160.578 49.1102L160.429 48.9092L160.281 48.7082C157.59 50.6984 156.238 53.5332 156.238 57.2004H156.488ZM160.429 48.9092L160.578 49.1102C163.136 47.2176 166.972 46.2519 172.122 46.2519V46.0019V45.7519C166.923 45.7519 162.963 46.7243 160.281 48.7082L160.429 48.9092ZM172.122 46.0019H171.872V52.3549H172.122H172.372V46.0019H172.122ZM172.122 52.3549L171.967 52.1595C168.669 54.792 166.909 56.6871 166.085 58.0162L166.298 58.148L166.51 58.2797C167.288 57.0246 168.994 55.1724 172.278 52.5503L172.122 52.3549ZM166.298 58.148L166.184 58.3707L167.029 58.8014L167.142 58.5787L167.256 58.356L166.411 57.9253L166.298 58.148ZM167.142 58.5787L167.345 58.7251C168.517 57.1035 170.566 55.1168 172.792 53.3024C175.017 51.489 177.399 49.8648 179.227 48.961L179.117 48.7369L179.006 48.5128C177.131 49.4395 174.717 51.0887 172.476 52.9148C170.236 54.74 168.149 56.7589 166.939 58.4322L167.142 58.5787ZM179.117 48.7369L179.227 48.961C182.892 47.1493 186.968 46.2519 191.459 46.2519V46.0019V45.7519C186.899 45.7519 182.747 46.6635 179.006 48.5128L179.117 48.7369ZM191.459 46.0019V46.2519C195.408 46.2519 198.874 47.0627 201.908 48.6985L202.026 48.4785L202.145 48.2584C199.029 46.5778 195.479 45.7519 191.459 45.7519V46.0019ZM202.026 48.4785L201.907 48.6982C204.924 50.3365 207.315 52.5672 209.022 55.4332L209.237 55.3053L209.452 55.1773C207.695 52.2287 205.236 49.9369 202.146 48.2588L202.026 48.4785ZM209.237 55.3053L209.023 55.4344C210.752 58.3001 211.607 61.5068 211.607 65.0394H211.857H212.107C212.107 61.4222 211.23 58.1251 209.451 55.1761L209.237 55.3053ZM211.857 65.0394H211.607V93.1434H211.857H212.107V65.0394H211.857ZM211.857 93.1434H211.607C211.607 94.6456 211.275 95.923 210.626 96.9806C209.978 98.038 209.005 98.891 207.698 99.5303L207.808 99.7548L207.918 99.9794C209.296 99.305 210.348 98.3921 211.053 97.242C211.758 96.0923 212.107 94.7207 212.107 93.1434H211.857ZM207.808 99.7548L207.697 99.5306C205.043 100.84 200.998 101.486 195.509 101.486V101.736V101.986C201.019 101.986 205.159 101.34 207.919 99.979L207.808 99.7548ZM195.509 101.736H195.759V67.2791H195.509H195.259V101.736H195.509ZM195.509 67.2791H195.759C195.759 64.7789 194.866 62.6686 193.129 60.963L192.953 61.1414L192.778 61.3198C194.419 62.9307 195.259 64.9122 195.259 67.2791H195.509ZM192.953 61.1414L193.127 60.9619C191.357 59.2457 188.883 58.4148 185.743 58.4148V58.6648V58.9148C188.795 58.9148 191.129 59.7207 192.779 61.3209L192.953 61.1414ZM185.743 58.6648V58.4148C181.88 58.4148 178.697 59.5515 176.261 61.8199L176.432 62.0028L176.602 62.1858C178.93 60.0179 181.984 58.9148 185.743 58.9148V58.6648ZM176.432 62.0028L176.261 61.8199C173.826 64.0874 172.609 66.9543 172.609 70.4017H172.859H173.109C173.109 67.087 174.273 64.3546 176.602 62.1858L176.432 62.0028ZM172.859 70.4017H172.609V93.1218H172.859H173.109V70.4017H172.859ZM172.859 93.1218H172.609C172.609 94.6248 172.281 95.9025 171.641 96.9603C171 98.0175 170.038 98.8701 168.742 99.5091L168.853 99.7333L168.963 99.9575C170.331 99.2828 171.372 98.3695 172.068 97.2193C172.765 96.0696 173.109 94.6985 173.109 93.1218H172.859ZM168.853 99.7333L168.742 99.5091C166.131 100.797 162.064 101.465 156.51 101.465V101.715V101.965C162.086 101.965 166.247 101.297 168.963 99.9575L168.853 99.7333ZM156.51 101.715H156.76V57.1573H156.51H156.26V101.715H156.51ZM156.51 57.1573L156.287 57.045L156.265 57.0881L156.488 57.2004L156.712 57.3127L156.733 57.2696L156.51 57.1573ZM214.088 54.9392H214.338C214.338 53.4362 214.665 52.1589 215.311 51.1015C215.956 50.0447 216.929 49.1919 218.246 48.5527L218.137 48.3277L218.028 48.1028C216.638 48.7773 215.587 49.6904 214.884 50.8409C214.182 51.991 213.838 53.3625 213.838 54.9392H214.088ZM218.137 48.3277L218.248 48.5519C220.902 47.2427 224.947 46.5965 230.436 46.5965V46.3465V46.0965C224.926 46.0965 220.786 46.7423 218.026 48.1035L218.137 48.3277ZM230.436 46.3465H230.186V93.488H230.436H230.686V46.3465H230.436ZM230.436 93.488H230.186C230.186 94.9902 229.854 96.2675 229.206 97.3252C228.557 98.3825 227.584 99.2356 226.277 99.8748L226.387 100.099L226.497 100.324C227.875 99.6495 228.927 98.7367 229.632 97.5866C230.337 96.4369 230.686 95.0653 230.686 93.488H230.436ZM226.387 100.099L226.277 99.8752C223.622 101.184 219.577 101.831 214.088 101.831V102.081V102.331C219.599 102.331 223.738 101.685 226.498 100.324L226.387 100.099ZM214.088 102.081H214.338V54.9392H214.088H213.838V102.081H214.088ZM231.108 32.0899H230.858C230.858 36.3289 227.039 39.8081 222.273 39.8081V40.0581V40.3081C227.265 40.3081 231.358 36.6523 231.358 32.0899H231.108ZM222.273 40.0581V39.8081C217.507 39.8081 213.688 36.3289 213.688 32.0899H213.438H213.188C213.188 36.6523 217.28 40.3081 222.273 40.3081V40.0581ZM213.438 32.0899H213.688C213.688 27.8509 217.507 24.3717 222.273 24.3717V24.1217V23.8717C217.28 23.8717 213.188 27.5275 213.188 32.0899H213.438ZM222.273 24.1217V24.3717C227.039 24.3717 230.858 27.8509 230.858 32.0899H231.108H231.358C231.358 27.5275 227.265 23.8717 222.273 23.8717V24.1217ZM232.667 57.2004H232.917C232.917 53.6714 234.166 50.9927 236.63 49.1078L236.478 48.9092L236.326 48.7107C233.723 50.7021 232.417 53.5365 232.417 57.2004H232.667ZM236.478 48.9092L236.629 49.1084C239.121 47.2179 242.911 46.2519 248.063 46.2519V46.0019V45.7519C242.864 45.7519 238.945 46.7241 236.327 48.71L236.478 48.9092ZM248.063 46.0019H247.813V52.3549H248.063H248.313V46.0019H248.063ZM248.063 52.3549L247.88 52.1844C245.659 54.5645 244.033 56.3109 243.236 57.6312L243.45 57.7604L243.664 57.8895C244.427 56.6256 246.005 54.9262 248.245 52.5255L248.063 52.3549ZM243.45 57.7604L243.337 57.9831L244.181 58.4138L244.295 58.1911L244.408 57.9684L243.564 57.5377L243.45 57.7604ZM244.295 58.1911L244.496 58.34C247.041 54.9074 251.285 50.5836 254 48.8619L253.866 48.6508L253.732 48.4397C250.946 50.2068 246.659 54.5833 244.094 58.0422L244.295 58.1911ZM253.866 48.6508L254.001 48.8612C256.703 47.1257 259.924 46.2734 263.718 46.2734V46.0234V45.7734C259.847 45.7734 256.528 46.644 253.731 48.4404L253.866 48.6508ZM263.718 46.0234V46.2734C267.058 46.2734 269.872 47.0289 272.17 48.5239C274.469 50.0186 276.269 52.2644 277.564 55.2748L277.793 55.1761L278.023 55.0773C276.697 51.9932 274.838 49.6626 272.443 48.1047C270.048 46.547 267.135 45.7734 263.718 45.7734V46.0234ZM277.793 55.1761L277.999 55.3188C279.968 52.4876 282.47 50.2752 285.552 48.679L285.437 48.457L285.322 48.235C282.168 49.869 279.603 52.1361 277.588 55.0333L277.793 55.1761ZM285.437 48.457L285.553 48.6786C288.609 47.0844 292.076 46.295 295.939 46.295V46.045V45.795C292.007 45.795 288.458 46.5992 285.322 48.2353L285.437 48.457ZM295.939 46.045V46.295C301.291 46.295 305.529 48.0591 308.702 51.5958L308.888 51.4289L309.074 51.2619C305.794 47.6058 301.414 45.795 295.939 45.795V46.045ZM308.888 51.4289L308.702 51.5958C311.881 55.1397 313.467 59.6213 313.467 65.104H313.717H313.967C313.967 59.5174 312.348 54.911 309.074 51.2619L308.888 51.4289ZM313.717 65.104H313.467V93.208H313.717H313.967V65.104H313.717ZM313.717 93.208H313.467C313.467 94.7116 313.145 95.99 312.514 97.048C311.884 98.1053 310.937 98.9575 309.664 99.596L309.776 99.8194L309.888 100.043C311.235 99.3677 312.258 98.454 312.944 97.3039C313.629 96.1545 313.967 94.784 313.967 93.208H313.717ZM309.776 99.8194L309.664 99.596C307.097 100.883 303.074 101.551 297.607 101.551V101.801V102.051C303.096 102.051 307.215 101.383 309.888 100.043L309.776 99.8194ZM297.607 101.801H297.857V66.3746H297.607H297.357V101.801H297.607ZM297.607 66.3746H297.857C297.857 63.8997 297.239 61.8999 296.002 60.4009L295.809 60.56L295.617 60.7191C296.761 62.1059 297.357 63.9825 297.357 66.3746H297.607ZM295.809 60.56L296.002 60.4009C294.748 58.881 292.801 58.1564 290.201 58.1564V58.4064V58.6564C292.711 58.6564 294.489 59.3532 295.617 60.7191L295.809 60.56ZM290.201 58.4064V58.1564C287.587 58.1564 285.382 58.9957 283.58 60.6334L283.748 60.8184L283.916 61.0035C285.622 59.4538 287.705 58.6564 290.201 58.6564V58.4064ZM283.748 60.8184L283.58 60.6334C281.749 62.2972 280.878 65.1197 280.878 68.9374H281.128H281.378C281.378 65.1744 282.24 62.5269 283.916 61.0035L283.748 60.8184ZM281.128 68.9374H280.878V93.1649H281.128H281.378V68.9374H281.128ZM281.128 93.1649H280.878C280.878 94.6693 280.561 95.9482 279.941 97.0065C279.321 98.0639 278.39 98.9157 277.138 99.5537L277.252 99.7764L277.366 99.9991C278.691 99.3234 279.698 98.4093 280.372 97.2593C281.046 96.1102 281.378 94.7402 281.378 93.1649H281.128ZM277.252 99.7764L277.137 99.5544C274.615 100.861 270.659 101.508 265.256 101.508V101.758V102.008C270.679 102.008 274.735 101.362 277.367 99.9984L277.252 99.7764ZM265.256 101.758H265.506V66.3315H265.256H265.006V101.758H265.256ZM265.256 66.3315H265.506C265.506 63.8566 264.889 61.8568 263.651 60.3578L263.458 60.5169L263.266 60.6761C264.41 62.0628 265.006 63.9394 265.006 66.3315H265.256ZM263.458 60.5169L263.651 60.3578C262.398 58.8394 260.475 58.1134 257.958 58.1134V58.3634V58.6134C260.379 58.6134 262.137 59.3087 263.266 60.6761L263.458 60.5169ZM257.958 58.3634V58.1134C254.842 58.1134 252.466 59.0575 250.877 60.9795C249.295 62.8923 248.527 65.7327 248.527 69.4542H248.777H249.027C249.027 65.789 249.786 63.084 251.262 61.2981C252.732 59.5213 254.947 58.6134 257.958 58.6134V58.3634ZM248.777 69.4542H248.527V93.1434H248.777H249.027V69.4542H248.777ZM248.777 93.1434H248.527C248.527 94.647 248.205 95.9253 247.574 96.9834C246.944 98.0407 245.998 98.8929 244.724 99.5314L244.836 99.7548L244.948 99.9783C246.295 99.3031 247.319 98.3894 248.004 97.2393C248.689 96.0899 249.027 94.7194 249.027 93.1434H248.777ZM244.836 99.7548L244.724 99.5314C242.157 100.818 238.134 101.486 232.667 101.486V101.736V101.986C238.156 101.986 242.275 101.319 244.948 99.9783L244.836 99.7548ZM232.667 101.736H232.917V57.1789H232.667H232.417V101.736H232.667ZM232.667 57.1789H232.417V57.2004H232.667H232.917V57.1789H232.667ZM315.254 34.1573H315.504C315.504 31.2354 316.818 28.9433 319.501 27.2624L319.369 27.0505L319.236 26.8387C316.419 28.6034 315.004 31.0492 315.004 34.1573H315.254ZM319.369 27.0505L319.501 27.2624C322.192 25.5765 326.294 24.7162 331.841 24.7162V24.4662V24.2162C326.259 24.2162 322.045 25.0788 319.236 26.8387L319.369 27.0505ZM331.841 24.4662H331.591V49.0169H331.841H332.091V24.4662H331.841ZM331.841 49.0169L331.708 48.8055C331.015 49.2427 329.996 49.9861 329.099 50.6883C328.651 51.0399 328.23 51.3833 327.895 51.675C327.568 51.9601 327.301 52.2132 327.179 52.3791L327.381 52.5272L327.582 52.6752C327.666 52.5612 327.889 52.3431 328.223 52.0522C328.55 51.7678 328.963 51.4301 329.408 51.0819C330.298 50.3842 331.303 49.6525 331.975 49.2282L331.841 49.0169ZM327.381 52.5272L327.193 52.6928L327.67 53.2312L327.857 53.0656L328.044 52.8999L327.568 52.3615L327.381 52.5272ZM327.857 53.0656L328.022 53.2531C331.972 49.7731 334.622 48.7541 338.061 47.7493L337.991 47.5094L337.921 47.2694C334.431 48.289 331.71 49.3374 327.692 52.878L327.857 53.0656ZM337.991 47.5094L338.061 47.7493C341.509 46.7421 344.603 46.2519 347.367 46.2519V46.0019V45.7519C344.545 45.7519 341.402 46.2522 337.921 47.2694L337.991 47.5094ZM347.367 46.0019V46.2519C354.405 46.2519 359.993 48.0492 364.159 51.6187L364.322 51.4288L364.485 51.239C360.206 47.5725 354.491 45.7519 347.367 45.7519V46.0019ZM364.322 51.4288L364.159 51.6187C368.324 55.1871 370.395 59.8114 370.395 65.4701H370.645H370.895C370.895 59.6718 368.765 54.9065 364.485 51.239L364.322 51.4288ZM370.645 65.4701H370.395V82.1602H370.645H370.895V65.4701H370.645ZM370.645 82.1602H370.395C370.395 85.8351 369.349 89.1441 367.279 92.073L367.483 92.2173L367.688 92.3616C369.818 89.3467 370.895 85.9366 370.895 82.1602H370.645ZM367.483 92.2173L367.279 92.073C365.204 95.0088 362.444 97.3292 359.016 98.9915L359.125 99.2164L359.234 99.4414C362.735 97.7441 365.562 95.3697 367.688 92.3616L367.483 92.2173ZM359.125 99.2164L359.016 98.9915C355.586 100.655 351.942 101.486 348.082 101.486V101.736V101.986C352.017 101.986 355.735 101.138 359.234 99.4414L359.125 99.2164ZM348.082 101.736V101.486C343.736 101.486 340.052 100.716 337.042 99.2082L336.93 99.4318L336.818 99.6553C339.914 101.206 343.679 101.986 348.082 101.986V101.736ZM336.93 99.4318L337.043 99.2089C334.027 97.6772 329.874 94.1488 327.445 91.1553L327.251 91.3128L327.056 91.4704C329.521 94.5069 333.726 98.0852 336.817 99.6547L336.93 99.4318ZM327.251 91.3128L327.106 91.109L326.5 91.5397L326.644 91.7435L326.789 91.9474L327.395 91.5167L327.251 91.3128ZM326.644 91.7435L326.43 91.8727C326.541 92.0556 326.763 92.3297 327.037 92.6436C327.314 92.9627 327.658 93.3387 328.023 93.7308C328.755 94.5186 329.567 95.369 330.118 95.981L330.304 95.8138L330.49 95.6466C329.936 95.0311 329.113 94.1694 328.389 93.3904C328.026 92.9992 327.686 92.6281 327.414 92.3153C327.137 91.9973 326.943 91.7545 326.858 91.6144L326.644 91.7435ZM330.304 95.8138H330.054C330.054 97.5532 329.002 98.9253 326.737 99.9357L326.839 100.164L326.941 100.392C329.31 99.3352 330.554 97.8216 330.554 95.8138H330.304ZM326.839 100.164L326.737 99.9357C324.472 100.946 320.664 101.465 315.254 101.465V101.715V101.965C320.672 101.965 324.572 101.449 326.941 100.392L326.839 100.164ZM315.254 101.715H315.504V34.1573H315.254H315.004V101.715H315.254ZM351.351 87.0057L351.494 87.2109C353.517 85.8025 354.525 83.7406 354.525 81.0834H354.275H354.025C354.025 83.5948 353.083 85.4954 351.208 86.8005L351.351 87.0057ZM354.275 81.0834H354.525V66.5469H354.275H354.025V81.0834H354.275ZM354.275 66.5469H354.525C354.525 63.9513 353.515 61.9338 351.494 60.5271L351.351 60.7322L351.208 60.9374C353.085 62.2441 354.025 64.1031 354.025 66.5469H354.275ZM351.351 60.7322L351.494 60.5271C349.487 59.1295 346.613 58.4364 342.928 58.4364V58.6864V58.9364C346.562 58.9364 349.318 59.6215 351.208 60.9374L351.351 60.7322ZM342.928 58.6864V58.4364C339.559 58.4364 336.777 59.1544 334.602 60.6332L334.743 60.8399L334.883 61.0467C336.953 59.6396 339.628 58.9364 342.928 58.9364V58.6864ZM334.743 60.8399L334.601 60.6339C332.452 62.1106 331.331 63.9245 331.331 66.1161H331.581H331.831C331.831 64.1299 332.833 62.4551 334.884 61.046L334.743 60.8399ZM331.581 66.1161H331.331V81.6218H331.581H331.831V66.1161H331.581ZM331.581 81.6218H331.331C331.331 83.8756 332.449 85.713 334.604 87.1491L334.743 86.9411L334.881 86.7331C332.836 85.3696 331.831 83.6751 331.831 81.6218H331.581ZM334.743 86.9411L334.604 87.1491C336.758 88.5843 339.539 89.2801 342.928 89.2801V89.0301V88.7801C339.604 88.7801 336.929 88.0975 334.881 86.7331L334.743 86.9411ZM342.928 89.0301V89.2801C346.613 89.2801 349.487 88.587 351.494 87.1894L351.351 86.9842L351.208 86.779C349.318 88.0949 346.562 88.7801 342.928 88.7801V89.0301ZM351.351 86.9842H351.101V87.0057H351.351H351.601V86.9842H351.351ZM378.007 96.4383L378.185 96.2627C374.728 92.7606 372.996 88.3249 372.996 82.9355H372.746H372.496C372.496 88.4432 374.271 93.0093 377.83 96.614L378.007 96.4383ZM372.746 82.9355H372.996V33.0805H372.746H372.496V82.9355H372.746ZM372.746 33.0805H372.996C372.996 31.5776 373.323 30.2998 373.964 29.2421C374.604 28.1849 375.567 27.3322 376.862 26.6933L376.752 26.4691L376.641 26.2449C375.273 26.9196 374.233 27.8328 373.536 28.983C372.84 30.1327 372.496 31.5038 372.496 33.0805H372.746ZM376.752 26.4691L376.864 26.6926C379.473 25.3844 383.539 24.7378 389.094 24.7378V24.4878V24.2378C383.52 24.2378 379.357 24.8834 376.64 26.2456L376.752 26.4691ZM389.094 24.4878H388.844V82.3971H389.094H389.344V24.4878H389.094ZM389.094 82.3971H388.844C388.844 84.803 389.46 86.5895 390.728 87.6899L390.892 87.5011L391.055 87.3123C389.941 86.3452 389.344 84.7291 389.344 82.3971H389.094ZM390.892 87.5011L390.728 87.6899C391.985 88.781 393.919 89.3016 396.5 89.3016V89.0516V88.8016C393.97 88.8016 392.18 88.2885 391.055 87.3123L390.892 87.5011ZM396.5 89.0516V89.3016C399.572 89.3016 402.576 88.581 405.553 87.1226L405.443 86.8981L405.333 86.6735C402.42 88.1009 399.491 88.8016 396.5 88.8016V89.0516ZM405.443 86.8981L405.284 87.0913C406.122 87.7784 406.814 88.6538 407.318 89.6987L407.543 89.59L407.768 89.4813C407.233 88.3726 406.496 87.439 405.601 86.7048L405.443 86.8981ZM407.543 89.59L407.318 89.6987C407.823 90.7453 408.073 91.7852 408.073 92.8204H408.323H408.573C408.573 91.702 408.303 90.5882 407.768 89.4813L407.543 89.59ZM408.323 92.8204H408.073C408.073 95.018 406.88 96.9972 404.408 98.799L404.555 99.0011L404.702 99.2031C407.253 97.3439 408.573 95.2314 408.573 92.8204H408.323ZM404.555 99.0011L404.408 98.799C401.956 100.586 398.38 101.486 393.642 101.486V101.736V101.986C398.431 101.986 402.13 101.078 404.702 99.2031L404.555 99.0011ZM393.642 101.736V101.486C386.753 101.486 381.63 99.7309 378.185 96.2412L378.007 96.4168L377.83 96.5924C381.4 100.209 386.672 101.986 393.642 101.986V101.736ZM378.007 96.4168H377.757V96.4383H378.007H378.257V96.4168H378.007ZM409.665 54.9392H409.915C409.915 53.4362 410.243 52.1589 410.888 51.1015C411.534 50.0447 412.507 49.1919 413.824 48.5527L413.715 48.3277L413.605 48.1028C412.216 48.7773 411.164 49.6904 410.462 50.8409C409.759 51.991 409.415 53.3625 409.415 54.9392H409.665ZM413.715 48.3277L413.825 48.5519C416.479 47.2427 420.525 46.5965 426.014 46.5965V46.3465V46.0965C420.503 46.0965 416.363 46.7423 413.604 48.1035L413.715 48.3277ZM426.014 46.3465H425.764V93.488H426.014H426.264V46.3465H426.014ZM426.014 93.488H425.764C425.764 94.9902 425.432 96.2675 424.783 97.3252C424.135 98.3825 423.161 99.2356 421.855 99.8748L421.965 100.099L422.075 100.324C423.453 99.6495 424.504 98.7367 425.209 97.5866C425.914 96.4369 426.264 95.0653 426.264 93.488H426.014ZM421.965 100.099L421.854 99.8752C419.2 101.184 415.155 101.831 409.665 101.831V102.081V102.331C415.176 102.331 419.316 101.685 422.075 100.324L421.965 100.099ZM409.665 102.081H409.915V54.9392H409.665H409.415V102.081H409.665ZM426.685 32.0899H426.435C426.435 36.3289 422.617 39.8081 417.851 39.8081V40.0581V40.3081C422.843 40.3081 426.935 36.6523 426.935 32.0899H426.685ZM417.851 40.0581V39.8081C413.084 39.8081 409.266 36.3289 409.266 32.0899H409.016H408.766C408.766 36.6523 412.858 40.3081 417.851 40.3081V40.0581ZM409.016 32.0899H409.266C409.266 27.8509 413.084 24.3717 417.851 24.3717V24.1217V23.8717C412.858 23.8717 408.766 27.5275 408.766 32.0899H409.016ZM417.851 24.1217V24.3717C422.617 24.3717 426.435 27.8509 426.435 32.0899H426.685H426.935C426.935 27.5275 422.843 23.8717 417.851 23.8717V24.1217Z" fill="white"/>
</svg>
